<svg id="圖層_1" data-name="圖層 1" xmlns="http://www.w3.org/2000/svg" viewBox="0 0 294 61"><defs><style>.cls-1{fill:#fff;}</style></defs><title>ikala-kolradar-logo</title><path class="cls-1" d="M37.39.93a6.92,6.92,0,0,0-9.46,2.54L13.86,27.84V6.93A6.93,6.93,0,0,0,0,6.93V53.69c0,.08,0,.16,0,.23s0,.24,0,.36,0,.25,0,.38,0,.18,0,.27a3.15,3.15,0,0,0,.09.42c0,.08,0,.15.05.22s.09.29.14.43,0,.14.08.2.11.28.17.41.07.14.1.22l.2.36.15.23a3.28,3.28,0,0,0,.2.31l.19.25.22.27.22.24.26.25.23.2.32.26.2.15c.13.1.27.18.41.27l.12.07h0l0,0L4,60l.14.07a4.52,4.52,0,0,0,.47.18l.18.07.42.12.26.06c.11,0,.23,0,.35.06l.34,0c.1,0,.2,0,.3,0l.39,0h.32l.36,0,.36,0,.29,0,.4-.08.25-.07a3.1,3.1,0,0,0,.4-.13l.23-.08L9.83,60l.25-.12.32-.18.28-.17.26-.17.3-.23.21-.18.29-.26.2-.21a3.45,3.45,0,0,0,.26-.28l.2-.25.2-.27.22-.33a1.63,1.63,0,0,1,.11-.17l7.5-13,7.5,13a6.92,6.92,0,0,0,9.46,2.53h0a6.92,6.92,0,0,0,2.54-9.46L29.65,32.43a6.84,6.84,0,0,0-1.44-1.75L39.93,10.39A6.92,6.92,0,0,0,37.39.93Z"/><path class="cls-1" d="M135.21,46.76H121.35V6.93A6.93,6.93,0,0,0,114.42,0h0a6.93,6.93,0,0,0-6.93,6.93V53.69a6.93,6.93,0,0,0,6.93,6.93h20.79a6.93,6.93,0,0,0,0-13.86Z"/><path class="cls-1" d="M70.53,1.94A28.37,28.37,0,1,0,98.9,30.31,28.4,28.4,0,0,0,70.53,1.94Zm0,43.3A14.93,14.93,0,1,1,85.46,30.31,15,15,0,0,1,70.53,45.24Z"/><path class="cls-1" d="M66.73,26.56a2.05,2.05,0,1,0-2.06-2A2.05,2.05,0,0,0,66.73,26.56Z"/><circle class="cls-1" cx="74.33" cy="24.51" r="2.05"/><path class="cls-1" d="M78.26,28.78A1.22,1.22,0,0,0,77,30c0,2.31-2.73,5.72-6.51,5.72S64,32.31,64,30a1.23,1.23,0,0,0-2.45,0c0,3.7,4,8.16,9,8.16s9-4.46,9-8.16A1.23,1.23,0,0,0,78.26,28.78Z"/><path class="cls-1" d="M167.38,50.18v8.13a2,2,0,0,1-1.76,2h0a17.41,17.41,0,0,1-2.38.16,10.63,10.63,0,0,1-2.07-.18,3.4,3.4,0,0,1-1.48-.64,2.83,2.83,0,0,1-.9-1.28,6.36,6.36,0,0,1-.31-2.15V32.11a2.24,2.24,0,0,1,.59-1.66,4.21,4.21,0,0,1,1.62-.95,19.05,19.05,0,0,1,4-.9,42.06,42.06,0,0,1,4.91-.28q7.06,0,10.65,3a9.89,9.89,0,0,1,3.58,8,8.91,8.91,0,0,1-1.64,5.42,11.47,11.47,0,0,1-3.89,3.48q1.84,2.52,3.64,4.71c.6.75,1.14,1.45,1.62,2.13a3.31,3.31,0,0,1-.65,4.58l0,0a5.16,5.16,0,0,1-3,.95,6.31,6.31,0,0,1-2-.26,4.67,4.67,0,0,1-1.43-.71,5.72,5.72,0,0,1-1.12-1.13,13.82,13.82,0,0,1-1-1.43l-4.3-6.91Zm3.22-6.81a4.46,4.46,0,0,0,3.08-1,3.71,3.71,0,0,0,1.12-2.94,3.53,3.53,0,0,0-1.25-2.94,6.35,6.35,0,0,0-4-1c-.51,0-.92,0-1.23,0s-.65.09-1,.15v7.68Z"/><path class="cls-1" d="M200,34.16a21.19,21.19,0,0,1,5,.56,11.27,11.27,0,0,1,3.89,1.72,7.68,7.68,0,0,1,2.49,2.91,9.37,9.37,0,0,1,.87,4.18V55a3.22,3.22,0,0,1-.74,2.18,7.66,7.66,0,0,1-1.77,1.46q-3.33,2-9.37,2a21.48,21.48,0,0,1-4.89-.51,11.38,11.38,0,0,1-3.73-1.54A7,7,0,0,1,189.39,56a7.72,7.72,0,0,1-.84-3.68,6.94,6.94,0,0,1,2.1-5.43c1.39-1.26,3.56-2.05,6.5-2.35l6.7-.72v-.36a2.19,2.19,0,0,0-1.3-2.12,8.76,8.76,0,0,0-3.77-.64,17.58,17.58,0,0,0-3.78.41c-.75.17-1.46.36-2.12.58a1.94,1.94,0,0,1-2.33-.95v0a4.52,4.52,0,0,1-.46-2,3.33,3.33,0,0,1,.64-2.12,5.07,5.07,0,0,1,2-1.36,16.21,16.21,0,0,1,3.51-.82A30.53,30.53,0,0,1,200,34.16Zm.41,20.11a11.36,11.36,0,0,0,1.92-.17,4.77,4.77,0,0,0,1.56-.49v-4.1l-3.68.31a5.74,5.74,0,0,0-2.36.62,1.65,1.65,0,0,0-.92,1.53,2,2,0,0,0,.8,1.66A4.28,4.28,0,0,0,200.42,54.27Z"/><path class="cls-1" d="M216.62,47.36a15.19,15.19,0,0,1,1-5.86,11.29,11.29,0,0,1,2.84-4.12A11.63,11.63,0,0,1,224.74,35a16.73,16.73,0,0,1,5.24-.79,11,11,0,0,1,2,.18,7.78,7.78,0,0,1,1.58.43V28.06a1.94,1.94,0,0,1,1.62-1.91h0a14.6,14.6,0,0,1,2.31-.18,12.33,12.33,0,0,1,2,.15,3.43,3.43,0,0,1,1.51.62A2.75,2.75,0,0,1,242,28a5.94,5.94,0,0,1,.31,2.07V54.33A4.37,4.37,0,0,1,240,58.17a15.84,15.84,0,0,1-3.83,1.71,18.24,18.24,0,0,1-5.43.74,17.8,17.8,0,0,1-6-.92A12.05,12.05,0,0,1,220.33,57a11.44,11.44,0,0,1-2.76-4.17A15.12,15.12,0,0,1,216.62,47.36ZM231.16,41a5.57,5.57,0,0,0-4.25,1.58,6.82,6.82,0,0,0-1.48,4.81,7.19,7.19,0,0,0,1.38,4.79,5,5,0,0,0,4,1.61,4.55,4.55,0,0,0,1.66-.28,3.89,3.89,0,0,0,1.16-.64V41.58A4.73,4.73,0,0,0,231.16,41Z"/><path class="cls-1" d="M258.06,34.16a21.31,21.31,0,0,1,5,.56A11.36,11.36,0,0,1,267,36.44a7.75,7.75,0,0,1,2.48,2.91,9.37,9.37,0,0,1,.87,4.18V55a3.22,3.22,0,0,1-.74,2.18,7.46,7.46,0,0,1-1.77,1.46q-3.33,2-9.36,2a21.48,21.48,0,0,1-4.89-.51,11.43,11.43,0,0,1-3.74-1.54,7,7,0,0,1-2.4-2.61,7.6,7.6,0,0,1-.85-3.68,6.94,6.94,0,0,1,2.1-5.43c1.4-1.26,3.57-2.05,6.5-2.35l6.71-.72v-.36a2.2,2.2,0,0,0-1.31-2.12,8.71,8.71,0,0,0-3.76-.64,17.6,17.6,0,0,0-3.79.41c-.75.17-1.46.36-2.12.58a1.93,1.93,0,0,1-2.32-.95v0a4.38,4.38,0,0,1-.46-2,3.27,3.27,0,0,1,.64-2.12,4.92,4.92,0,0,1,2-1.36,16.11,16.11,0,0,1,3.5-.82A30.56,30.56,0,0,1,258.06,34.16Zm.41,20.11a11.36,11.36,0,0,0,1.92-.17,4.85,4.85,0,0,0,1.56-.49v-4.1l-3.69.31a5.69,5.69,0,0,0-2.35.62A1.64,1.64,0,0,0,255,52a2,2,0,0,0,.79,1.66A4.32,4.32,0,0,0,258.47,54.27Z"/><path class="cls-1" d="M283.37,58.62a1.85,1.85,0,0,1-1.59,1.84h0a17,17,0,0,1-2.28.15,12.45,12.45,0,0,1-2-.15,3.45,3.45,0,0,1-1.5-.62A2.88,2.88,0,0,1,275,58.6a5.47,5.47,0,0,1-.33-2.07V41.17a4.36,4.36,0,0,1,.43-2,4.81,4.81,0,0,1,1.25-1.51,8.85,8.85,0,0,1,2-1.2,20,20,0,0,1,2.58-.95,21.8,21.8,0,0,1,2.87-.64,18.57,18.57,0,0,1,3-.23,6.94,6.94,0,0,1,3.89,1,3.44,3.44,0,0,1,1.43,3.09,5.58,5.58,0,0,1-.2,1.41,1.8,1.8,0,0,1-.75.91,4.89,4.89,0,0,1-2,.45c-.75.07-1.48.17-2.2.3s-1.39.28-2,.44a8.18,8.18,0,0,0-1.61.54Z"/></svg>