<svg id="圖層_1" data-name="圖層 1" xmlns="http://www.w3.org/2000/svg" viewBox="0 0 153.16 24.1"><defs><style>.cls-1,.cls-2,.cls-3,.cls-4{fill:#fff;}.cls-2{opacity:0.5;}.cls-3{opacity:0.8;}.cls-4{opacity:0.2;}</style></defs><title>ikala-gcp.expert-logo-w</title><path class="cls-1" d="M106.59,17.84a2.54,2.54,0,0,1-2.1.82,1.76,1.76,0,0,1-1.7-1.7h6.08c.45-3.18-.78-5.14-3.57-5.14a5.17,5.17,0,0,0-4.91,4.45,3.75,3.75,0,0,0,3.84,4.44,4.73,4.73,0,0,0,4.29-2.42Zm-1.51-4.14a1.57,1.57,0,0,1,1.63,1.61h-3.65A2.14,2.14,0,0,1,105.08,13.7Z"/><polygon class="cls-1" points="119.48 11.81 116.56 11.81 114.4 14.22 112.9 11.81 109.98 11.81 112.63 16.09 108.36 20.72 111.36 20.72 113.91 17.91 115.67 20.72 118.66 20.72 115.64 16.09 119.48 11.81"/><path class="cls-1" d="M124.81,11.83a6.63,6.63,0,0,0-3.51.92A3.62,3.62,0,0,0,120,14.86c-.1.6-1.28,9.24-1.28,9.24h2.43l.51-3.76a6.73,6.73,0,0,0,2.17.37,4.83,4.83,0,0,0,4.93-4.35A3.81,3.81,0,0,0,124.81,11.83Zm1.49,4.42a2.46,2.46,0,0,1-2.37,2.28,1.71,1.71,0,0,1-1.72-2.16l0-.18A2.4,2.4,0,0,1,124.57,14C125.8,14,126.49,14.9,126.3,16.25Z"/><path class="cls-1" d="M134.67,11.82a5.17,5.17,0,0,0-4.91,4.45,3.75,3.75,0,0,0,3.84,4.44,4.73,4.73,0,0,0,4.29-2.42L136,17.84a2.54,2.54,0,0,1-2.1.82,1.76,1.76,0,0,1-1.7-1.7h6.08C138.69,13.78,137.46,11.82,134.67,11.82Zm-2.24,3.49a2.14,2.14,0,0,1,2-1.61,1.57,1.57,0,0,1,1.63,1.61Z"/><path class="cls-1" d="M144.88,11.81A3.63,3.63,0,0,0,142.41,13l.16-1.16h-2.43l-1.24,8.91h2.42L142,16.1a2.19,2.19,0,0,1,1.77-2,4.19,4.19,0,0,1,1.44.06,4,4,0,0,0,.52.06l1-2.19c-.15,0-.5-.15-1.05-.24C145.39,11.83,145.15,11.81,144.88,11.81Z"/><path class="cls-1" d="M150,16.73l.34-2.38H152l.28-2h-1.66L151,9.64H148.6l-.38,2.66H147l-.28,2h1.2l-.33,2.43c-.05.31-.09.62-.12.92-.14,1.43.16,2.79,2,3a10.56,10.56,0,0,0,1.91-.15l-.08-2.13a2.12,2.12,0,0,1-.93,0c-.33-.1-.46-.46-.4-1.14C150,17.09,150,16.93,150,16.73Z"/><path class="cls-1" d="M97.57,18.13a1.29,1.29,0,1,0,1.29,1.29A1.29,1.29,0,0,0,97.57,18.13Z"/><path class="cls-1" d="M72,17a4.3,4.3,0,0,1-4.3-5.55,7.35,7.35,0,0,1,6.81-5.55,4.24,4.24,0,0,1,4,2.45l3.57-2.08a7.11,7.11,0,0,0-6.78-4.11,12.32,12.32,0,0,0-11.39,9.29c-1.15,5.13,2.07,9.29,7.2,9.29a12.14,12.14,0,0,0,9.42-5.09l-3-1.69A7.22,7.22,0,0,1,72,17Z"/><path class="cls-1" d="M52.62,9.55l-.69,3.06h5.38A7.29,7.29,0,0,1,50.89,17a4.3,4.3,0,0,1-4.3-5.55A7.35,7.35,0,0,1,53.4,5.92a4.24,4.24,0,0,1,4.05,2.45L61,6.29a7.13,7.13,0,0,0-6.79-4.11,12.3,12.3,0,0,0-11.38,9.29c-1.16,5.13,2.06,9.29,7.19,9.29S57,17.65,57,17.65l-.7,3.11h3.07l1.84-8.15.69-3.06H52.62Z"/><path class="cls-1" d="M100.79,6a4.6,4.6,0,0,0-4.71-3.78H85.83L81.66,20.73h3.75L86.71,15h6.64a7.05,7.05,0,0,0,3.37-1A8.78,8.78,0,0,0,100,10.61a7.89,7.89,0,0,0,.78-2A6.13,6.13,0,0,0,100.79,6ZM96.66,8.61a3.4,3.4,0,0,1-3.14,2.55H87.59l1.15-5.09h5.93A2,2,0,0,1,96.66,8.61Z"/><path class="cls-2" d="M35.67,10.22c-.33,2.94-3.35,5.33-6.75,5.33S23,13.16,23.37,10.22,26.74,4.9,30.13,4.9,36,7.29,35.67,10.22Z"/><path class="cls-1" d="M37.24,16.9a6,6,0,0,0-2-5.18,7,7,0,0,1-6.34,3.83,5.36,5.36,0,0,1-5.43-3.65l0,0A9.45,9.45,0,0,1,18,13.64c-4.36,0-7.53-3.05-7.08-6.82A6.73,6.73,0,0,1,12.07,3.9C6,4.29.72,8.66.07,14c-.69,5.59,4,10.12,10.5,10.12H28.09C32.7,24.1,36.79,20.88,37.24,16.9Z"/><path class="cls-3" d="M23.39,11.42a5.31,5.31,0,0,1,0-1.2,6,6,0,0,1,3.36-4.48C26.51,2.49,23.55,0,19.64,0a9.19,9.19,0,0,0-7.57,3.9c.3,0,.6,0,.91,0C18.4,3.86,22.59,7.07,23.39,11.42Z"/><path class="cls-4" d="M23.42,11.59l0-.17c-.8-4.35-5-7.56-10.41-7.56-.31,0-.61,0-.91,0A6.73,6.73,0,0,0,11,6.82c-.45,3.77,2.72,6.82,7.08,6.82a9.45,9.45,0,0,0,5.43-1.72h0C23.47,11.8,23.44,11.69,23.42,11.59Z"/></svg>