<svg id="圖層_1" data-name="圖層 1" xmlns="http://www.w3.org/2000/svg" viewBox="0 0 118.81 32.67"><defs><style>.cls-1{fill:#fff;}</style></defs><title>ikala-picaas-logo-w</title><path class="cls-1" d="M0,.49A.51.51,0,0,1,.5,0h9.78c7.24,0,12.6,2.51,12.6,10.05,0,7.27-5.38,10.57-12.4,10.57H5.79V32.11a.5.5,0,0,1-.5.5H.5a.5.5,0,0,1-.5-.5ZM10,16c4.86,0,7.18-1.94,7.18-5.95S14.64,4.63,9.8,4.63h-4V16Z"/><path class="cls-1" d="M32.5,3.63A3.64,3.64,0,1,1,28.85,0h0A3.64,3.64,0,0,1,32.5,3.63Z"/><path class="cls-1" d="M35,19.78c0-8.15,5.76-12.86,12.28-12.86a10.35,10.35,0,0,1,6.79,2.44.5.5,0,0,1,.09.69L52,13a.48.48,0,0,1-.68.11h0a5.65,5.65,0,0,0-3.68-1.47c-4,0-6.68,3.27-6.68,8.17s2.69,8.14,6.5,8.14A7.73,7.73,0,0,0,52,26.17a.49.49,0,0,1,.69.08l0,.05,1.82,3a.48.48,0,0,1-.1.63,12.15,12.15,0,0,1-7.68,2.74C40.11,32.61,35,27.9,35,19.78Z"/><path class="cls-1" d="M100.34,28.81,102.43,26a.51.51,0,0,1,.7-.11h0a10.4,10.4,0,0,0,6.37,2.39c2.68,0,3.93-1.26,3.93-2.93,0-2.05-2.65-3-5.26-4-3.21-1.21-6.88-3.05-6.88-7.14,0-4.25,3.43-7.32,8.91-7.32a13,13,0,0,1,7.73,2.63.48.48,0,0,1,.12.68v0L116,13a.48.48,0,0,1-.67.12h0a8.68,8.68,0,0,0-5-1.86c-2.46,0-3.63,1.18-3.63,2.71,0,1.94,2.47,2.67,5.13,3.65,3.31,1.24,7,2.83,7,7.4,0,4.21-3.33,7.6-9.52,7.6a15.28,15.28,0,0,1-8.89-3.11A.5.5,0,0,1,100.34,28.81Z"/><rect class="cls-1" x="26.03" y="11.86" width="5.74" height="20.75" rx="0.49"/><path class="cls-1" d="M56.33,25.68c0-5.06,4.19-7.69,13.89-8.73-.08-2.54-1.1-4.66-4.29-4.66a12.52,12.52,0,0,0-6.2,2.07.49.49,0,0,1-.68-.18h0L57.5,11.34a.5.5,0,0,1,.17-.66A18.17,18.17,0,0,1,67,7.83c5.91,0,8.81,3.64,8.81,10.22V32.11a.49.49,0,0,1-.48.5H71.67a.5.5,0,0,1-.49-.43l-.36-2.76h-.16a11.45,11.45,0,0,1-7.33,3.19,6.63,6.63,0,0,1-7-6.22C56.32,26.15,56.32,25.92,56.33,25.68Zm13.89,0V20.39c-6.41.81-8.54,2.48-8.54,4.87,0,2.09,1.42,3,3.4,3s3.42-.94,5.14-2.56Z"/><path class="cls-1" d="M78.29,25.68c0-5.06,4.19-7.69,13.89-8.73-.08-2.54-1.1-4.66-4.29-4.66a12.39,12.39,0,0,0-6.2,2.07.49.49,0,0,1-.68-.18h0l-1.56-2.83a.5.5,0,0,1,.17-.66,18.17,18.17,0,0,1,9.3-2.85c5.9,0,8.81,3.64,8.81,10.22V32.11a.5.5,0,0,1-.5.5H93.61a.49.49,0,0,1-.49-.43l-.37-2.76H92.6c-2.12,1.8-4.54,3.19-7.33,3.19a6.63,6.63,0,0,1-7-6.24Q78.28,26,78.29,25.68Zm13.89,0V20.39c-6.41.81-8.54,2.48-8.54,4.87,0,2.09,1.42,3,3.4,3s3.39-.94,5.14-2.56Z"/></svg>