<svg id="圖層_1" data-name="圖層 1" xmlns="http://www.w3.org/2000/svg" viewBox="0 0 88 19"><defs><style>.cls-1{fill:#fff;}</style></defs><title>ikala-cloudad-logo</title><path class="cls-1" d="M22.88,12a2.27,2.27,0,0,0-.59-1.65,2.12,2.12,0,0,0-1.61-.61l-3.4,8.35h.46a4.53,4.53,0,0,0,3.57-2A8.35,8.35,0,0,0,22.46,14,5.87,5.87,0,0,0,22.88,12Z"/><path class="cls-1" d="M5,11.71a2.82,2.82,0,0,0-.46,1.48A1.68,1.68,0,0,0,5,14.36,1.38,1.38,0,0,0,6,14.85,2.33,2.33,0,0,0,8,13.41l2.14-3.69H9.48a6.18,6.18,0,0,0-3.27.76A4,4,0,0,0,5,11.71Z"/><path class="cls-1" d="M13.54,7.51l-.3.49H15l1-2.56a2.23,2.23,0,0,0-1.28.49A6.06,6.06,0,0,0,13.54,7.51Z"/><path class="cls-1" d="M21.72,6.58c-.21,0-.41,0-.62,0a7.2,7.2,0,0,0-13.9-2l-.47,0a6.73,6.73,0,0,0,0,13.46h8.54l3.38-8.36H16.32l-.8,2-.32.79a.94.94,0,0,1-.85.55.92.92,0,0,1-.92-.92V12a5.07,5.07,0,0,1,.27-.86l.57-1.41h-2L9.89,13.85c-1.12,2-2.46,2.93-4,2.93a3.15,3.15,0,0,1-2.38-1,3.54,3.54,0,0,1-1-2.52,4.29,4.29,0,0,1,.74-2.36A5.84,5.84,0,0,1,5.32,9a6.72,6.72,0,0,1,2.12-.78A18.13,18.13,0,0,1,10.55,8h.53l.57-1a6.13,6.13,0,0,1,2.9-2.91,7.34,7.34,0,0,1,2.88-.47,1.12,1.12,0,0,1,.72.2.67.67,0,0,1,.26.56,1.08,1.08,0,0,1-.09.39l-.06.17L17,8h3.36a4.76,4.76,0,0,1,3.25,1,3.69,3.69,0,0,1,1.13,2.9,8.31,8.31,0,0,1-1.92,5.3,9.85,9.85,0,0,1-.83.87h0a5.75,5.75,0,0,0-.3-11.5Z"/><path class="cls-1" d="M35,10.44a3.33,3.33,0,0,1,2.7-.48,3,3,0,0,1,1.49.68l1.1-1.18A4,4,0,0,0,37.63,8a5.09,5.09,0,0,0-.56,0,4.76,4.76,0,0,0-.83.08,6.14,6.14,0,0,0-4.85,5,4.29,4.29,0,0,0,3.42,5,4.62,4.62,0,0,0,1.39,0h0a5.42,5.42,0,0,0,3.13-1.52l-.92-1.43A4.19,4.19,0,0,1,37.2,16a2.84,2.84,0,0,1-.85.24,2.64,2.64,0,0,1-2.16-.64A2.89,2.89,0,0,1,33.38,13,3.87,3.87,0,0,1,35,10.44Z"/><path class="cls-1" d="M48.27,11a4.43,4.43,0,0,0-4.16,3.57A3.09,3.09,0,0,0,44.84,17a3.18,3.18,0,0,0,2.4,1.08,4.41,4.41,0,0,0,4.13-3.58A3.09,3.09,0,0,0,48.27,11Zm1.28,3.57a2.13,2.13,0,0,1-2.06,1.91h0a1.51,1.51,0,0,1-1.16-.5,1.75,1.75,0,0,1-.37-1.44A2.12,2.12,0,0,1,48,12.6a1.58,1.58,0,0,1,1.2.5A1.81,1.81,0,0,1,49.55,14.53Z"/><path class="cls-1" d="M57.26,14.11c0,.33-.1.68-.16,1a1.62,1.62,0,0,1-1.65,1.42,1.31,1.31,0,0,1-1-.35,1.52,1.52,0,0,1-.28-1.09l0-.29c0-.23.05-.47.09-.71L54.72,11h-1.8L52.36,15a2.78,2.78,0,0,0,.47,2.18,3.05,3.05,0,0,0,2.37.88,3.53,3.53,0,0,0,3.65-2.71,4.86,4.86,0,0,0,.1-.55l0-.14L59.51,11h-1.8Z"/><path class="cls-1" d="M73.12,8,67.58,18.08h2L70.7,16h4.23l.55,2.06h2L74.7,8Zm-1.48,6.32,1.87-3.59,1,3.59Z"/><path class="cls-1" d="M86.18,9.47a3.58,3.58,0,0,0-2.39-1.4A9,9,0,0,0,82.72,8H79.8L78.38,18.08h2.89c.38,0,.74-.08,1.11-.08,2.49,0,4.27-2.15,4.62-5A4.76,4.76,0,0,0,86.18,9.47ZM85,13c-.25,1.72-1.17,3-2.5,3.22a14.22,14.22,0,0,1-1.93.13H80.5l0-.11.91-6.51h.08a12.66,12.66,0,0,1,1.89.13h0C84.69,10.12,85.29,11.26,85,13Z"/><polygon class="cls-1" points="40.48 18.08 42.27 18.08 43.63 8 41.84 8 40.48 18.08"/><path class="cls-1" d="M66.32,8l-.45,3.31-.12-.05a3.93,3.93,0,0,0-1.46-.3,4.73,4.73,0,0,0-.93.08,4.14,4.14,0,0,0-3.29,3.16,3.49,3.49,0,0,0,.64,3,2.54,2.54,0,0,0,1.83.89c.23,0,.45,0,.66,0a4.67,4.67,0,0,0,1.57-.36l.16-.07-.07.43H66.7L68.12,8Zm-1,6.91a2.06,2.06,0,0,1-2,1.58A1.52,1.52,0,0,1,62.2,16a1.82,1.82,0,0,1-.34-1.49,2.12,2.12,0,0,1,2.06-1.94,1.49,1.49,0,0,1,1.54,1.61Z"/></svg>