<svg id="圖層_1" data-name="圖層 1" xmlns="http://www.w3.org/2000/svg" viewBox="0 0 86 27"><defs><style>.cls-1{fill:#fff;}</style></defs><title>ikala-shoplus-logo</title><path class="cls-1" d="M6.41,6.37c-3.12,0-5.5,2-5.5,4.27s1.92,3.53,3.83,4.45c1.5.73,2.82,1.26,2.75,2.48s-1.22,1.7-2.75,1.7a4.29,4.29,0,0,1-2.6-1,1.26,1.26,0,0,0-.67-.19,1.7,1.7,0,0,0-.95.28A1.46,1.46,0,0,0,0,19.72c.06.44.43.71.75,1A6.14,6.14,0,0,0,4.37,22c3.35,0,5.76-1.65,6.07-4,.38-2.88-2.14-4.43-4.22-5.31-1.46-.62-2.55-1.21-2.32-2.26.19-.85,1-1.39,2.3-1.36a4,4,0,0,1,2.57,1.05,1.51,1.51,0,0,0,1.16.33,1.43,1.43,0,0,0,.62-.24,1.24,1.24,0,0,0,.54-.8c.16-.7-.15-1-.66-1.54A5.88,5.88,0,0,0,6.41,6.37Z"/><path class="cls-1" d="M19.3,11l-.44,0a4,4,0,0,0-2.75,1.06l-.27.21L16.43,8a1.37,1.37,0,0,0-.33-1.1,1.35,1.35,0,0,0-1-.48,1.4,1.4,0,0,0-1.38,1.19L11.87,20.45a1.45,1.45,0,0,0,.33,1.11,1.39,1.39,0,0,0,2.42-.72l.7-4.92A2.78,2.78,0,0,1,18,13.52a1.85,1.85,0,0,1,1.44.6A2.28,2.28,0,0,1,19.84,16l-.62,4.5a1.36,1.36,0,0,0,.32,1.09,1.4,1.4,0,0,0,1,.48A1.38,1.38,0,0,0,22,20.84l.75-5.16a4.91,4.91,0,0,0,0-1.12A3.7,3.7,0,0,0,19.3,11Z"/><path class="cls-1" d="M30.39,11A6.39,6.39,0,0,0,24,16.54a4.79,4.79,0,0,0,1.13,3.82A4.88,4.88,0,0,0,28.81,22,6.32,6.32,0,0,0,35.2,16.5,4.82,4.82,0,0,0,30.39,11Zm2,5.54a3.26,3.26,0,0,1-3.16,2.94h0a2.35,2.35,0,0,1-1.79-.76,2.74,2.74,0,0,1-.56-2.22A3.26,3.26,0,0,1,30,13.56a2.39,2.39,0,0,1,1.83.78A2.72,2.72,0,0,1,32.35,16.54Z"/><path class="cls-1" d="M42.81,11a6.88,6.88,0,0,0-4,1.27,6,6,0,0,0-1.34,1.35,4.43,4.43,0,0,0-.74,2.25l-1.25,8.86a1.37,1.37,0,0,0,.32,1.1,1.42,1.42,0,0,0,1.05.48,1.39,1.39,0,0,0,1.37-1.2l.49-3.63.17.06a8.17,8.17,0,0,0,2.71.47,6,6,0,0,0,6.12-5.42,5.43,5.43,0,0,0-1.13-4.11A4.74,4.74,0,0,0,42.81,11Zm2,5.5a3.27,3.27,0,0,1-3.15,3,2.32,2.32,0,0,1-1.81-.77,2.61,2.61,0,0,1-.52-2.13l0-.23a3.19,3.19,0,0,1,3.11-2.9,2.28,2.28,0,0,1,1.8.75A2.77,2.77,0,0,1,44.84,16.52Z"/><path class="cls-1" d="M52.63,19.34a1.21,1.21,0,0,1-.72-1A5.26,5.26,0,0,1,52,16.81l1.2-8.88a1.4,1.4,0,0,0-.33-1.09,1.38,1.38,0,0,0-2.4.72l-1.28,9.36c0,.22-.05.4-.07.6s0,.23,0,.35c-.3,2.75,1,4.1,2.72,4.16a1.44,1.44,0,0,0,.85-2.69Z"/><path class="cls-1" d="M64.7,11a1.4,1.4,0,0,0-1.37,1.19l-.52,3.68c-.07.53-.15,1.05-.24,1.53a2.64,2.64,0,0,1-2.6,2,2,2,0,0,1-1.55-.53,1.9,1.9,0,0,1-.37-1.49c0-.15,0-.29,0-.44,0-.35.08-.72.15-1.1l.46-3.25a1.41,1.41,0,0,0-.33-1.1,1.38,1.38,0,0,0-1-.48A1.41,1.41,0,0,0,56,12.2l-.71,5.08A4.36,4.36,0,0,0,56,20.67,4.69,4.69,0,0,0,59.67,22a5.42,5.42,0,0,0,5.61-4.21,5.67,5.67,0,0,0,.16-.84l.64-4.22a1.85,1.85,0,0,0-.33-1.28A1.39,1.39,0,0,0,64.7,11Z"/><path class="cls-1" d="M74.82,11.89A4.7,4.7,0,0,0,72.11,11c-2,0-3.74,1-4.11,2.58-.42,1.82,1.32,3,2.72,3.63.88.4,2.3.79,2.17,1.58s-1,1-2,.93A3.24,3.24,0,0,1,69,19a1.37,1.37,0,0,0-.58-.22,1.19,1.19,0,0,0-1.29.87,1.26,1.26,0,0,0,.32,1.08A4.36,4.36,0,0,0,70.89,22c2.58,0,4.28-1.16,4.5-3.06s-1.41-2.84-2.9-3.45c-1-.41-2.12-.83-2-1.54.06-.45.6-.85,1.51-.79a3,3,0,0,1,1.83.87,1.34,1.34,0,0,0,.94.13,1.14,1.14,0,0,0,.69-.58,1.21,1.21,0,0,0,.08-.82A1.91,1.91,0,0,0,74.82,11.89Z"/><path class="cls-1" d="M85.08,6.8a1.28,1.28,0,0,0-1-.43H82.25l.26-1.93A1.25,1.25,0,1,0,80,4.1l-.31,2.27H77.48a1.27,1.27,0,0,0-1.25,1.08,1.25,1.25,0,0,0,.29,1,1.26,1.26,0,0,0,1,.44h1.89l-.27,1.93a1.24,1.24,0,0,0,.29,1,1.26,1.26,0,0,0,.94.43,1.24,1.24,0,0,0,1.23-1.07l.33-2.28h2.24a1.27,1.27,0,0,0,1.24-1.08A1.28,1.28,0,0,0,85.08,6.8Z"/><path class="cls-1" d="M58.18,7.38a.44.44,0,0,0,.16,0,.46.46,0,0,0,.44-.3A9.32,9.32,0,0,1,73.63,3.2a.47.47,0,0,0,.66,0,.48.48,0,0,0-.05-.66A10.24,10.24,0,0,0,57.9,6.78.47.47,0,0,0,58.18,7.38Z"/></svg>