<svg id="圖層_1" data-name="圖層 1" xmlns="http://www.w3.org/2000/svg" xmlns:xlink="http://www.w3.org/1999/xlink" viewBox="0 0 150.52 34.51"><defs><style>.cls-1{fill:#fff;}.cls-2{fill:url(#未命名漸層_10);}.cls-3{fill:url(#未命名漸層_10-2);}</style><linearGradient id="未命名漸層_10" x1="16.1" y1="14.98" x2="21.26" y2="7.51" gradientUnits="userSpaceOnUse"><stop offset="0" stop-color="#fff" stop-opacity="0"/><stop offset="1" stop-color="#fff"/></linearGradient><linearGradient id="未命名漸層_10-2" x1="13.39" y1="19.03" x2="8.27" y2="26.56" xlink:href="#未命名漸層_10"/></defs><title>ikala-straas-logo-w</title><path class="cls-1" d="M38.41,10.28c-1,1.94-1,4.09,0,5.35a5.7,5.7,0,0,0,2.41,1.84,23.22,23.22,0,0,0,2.76.85l1,.27.65.18.08,0c.37.09.7.18,1,.28l.28.08a5,5,0,0,1,2.27,1,2.12,2.12,0,0,1,.33,2.34,4.5,4.5,0,0,1-3.82,2.4H35.82l-.62,3.46h7.57c3.51,0,6.21-.8,8-2.38a7.64,7.64,0,0,0,2.31-6.74c-.43-1.9-2.33-3.28-5.66-4.11-1.46-.36-2.69-.69-3.87-1.05-.6-.18-1.86-.56-2.12-1.65a2.38,2.38,0,0,1,.82-2.38,2.93,2.93,0,0,1,2.08-.71h9.49l.66-3.69H46a10.53,10.53,0,0,0-1.87.26A8.63,8.63,0,0,0,38.41,10.28Z"/><path class="cls-1" d="M148.75,5.68h-8.46a10.4,10.4,0,0,0-1.87.26,8.65,8.65,0,0,0-5.77,4.34c-1,1.94-1,4.09,0,5.35a5.79,5.79,0,0,0,2.42,1.84,23.57,23.57,0,0,0,2.78.86l1,.26.65.18.08,0c.36.09.7.17,1,.28l.29.08a5,5,0,0,1,2.26,1,2.11,2.11,0,0,1,.33,2.34,4.48,4.48,0,0,1-3.81,2.4h-9.58l-.62,3.46H137c3.5,0,6.2-.8,8-2.38a7.68,7.68,0,0,0,2.32-6.74c-.46-2-2.17-3.35-5.22-4.11l-1.49-.35c-.92-.21-2-.44-2.83-.7-.6-.18-1.86-.56-2.12-1.65a2.4,2.4,0,0,1,.83-2.38,2.89,2.89,0,0,1,2.07-.71h9.5Z"/><polygon class="cls-1" points="56.44 5.68 55.78 9.37 62.91 9.37 59.48 28.39 63.37 28.39 66.8 9.37 73.66 9.37 74.32 5.68 56.44 5.68"/><path class="cls-1" d="M88.06,5.68H76.51L72.43,28.39h3.91L79.73,9.58h6.74a1.68,1.68,0,0,1,1.75,1.16,2.86,2.86,0,0,1-.83,2.62l-4.3,4.2c-1.14,1.11-1,1.41-.52,2.87l.06.17c.32.91,1.84,5.6,2.56,7.79H89.5c-1.74-4.95-2.76-7.85-2.89-8.17A2,2,0,0,1,87,17.77c.69-.63,2-1.86,2-1.88.42-.38.94-.87,1.17-1.12a7.54,7.54,0,0,0,2.2-3.93A4.32,4.32,0,0,0,91.51,7,4.28,4.28,0,0,0,88.06,5.68Z"/><path class="cls-1" d="M105.93,6.5a9.84,9.84,0,0,0-1.82-.26H96.69L96,9.92h8a2.33,2.33,0,0,1,2,.81,2.15,2.15,0,0,1,0,2.47,4.09,4.09,0,0,1-2.48,1.44c-1.31.35-2.67.68-4.29,1-3.42.77-5.78,2.22-7,4.3s-1.36,5.11-.17,6.59c.72.9,2.08,1.82,6.71,1.82h8.26l2.71-14.95h0l.16-.88a5.7,5.7,0,0,0,0-2A5.07,5.07,0,0,0,105.93,6.5Zm-1.58,18.34H98A2.82,2.82,0,0,1,95.18,23a2.65,2.65,0,0,1,1.23-3,5,5,0,0,1,1.24-.62,18.66,18.66,0,0,1,2.09-.56l.82-.2.9-.22.12,0c1-.23,2-.47,3-.8l1.18-.4Z"/><path class="cls-1" d="M125.33,6.5a9.86,9.86,0,0,0-1.81-.26H115.2l-.67,3.67h8.88a2.35,2.35,0,0,1,2,.81,2.15,2.15,0,0,1,0,2.47A4.07,4.07,0,0,1,123,14.64c-1.3.35-2.66.68-4.29,1-3.42.77-5.79,2.22-7,4.3s-1.36,5.11-.18,6.59c.73.9,2.09,1.82,6.72,1.82h8.26l2.71-14.95h0l.16-.88a5.9,5.9,0,0,0,.05-2A5.1,5.1,0,0,0,125.33,6.5Zm-1.58,18.34h-6.38A2.83,2.83,0,0,1,114.58,23a2.65,2.65,0,0,1,1.23-3,4.79,4.79,0,0,1,1.24-.62,18.81,18.81,0,0,1,2.1-.56l.11,0,.71-.17,1-.25c1-.23,2-.48,3-.8l1.19-.4Z"/><path class="cls-2" d="M24.18.08,23.35.3l-4,5.88h0l-5.18,7.6h0L18,16.44h0L26.21,4.34l.56-.83,0,0A2.34,2.34,0,0,0,27,1.65,2.34,2.34,0,0,0,24.18.08Z"/><path class="cls-1" d="M28.65,23.92c-.1-.08-20.9-14.63-20.9-14.63L19.33,6.18l4-5.88L1.7,6.09h0a2.35,2.35,0,0,0-.94,4h0l21,14.69h0l-11.6,3.1h0l-4,5.89L27.8,28A2.33,2.33,0,0,0,28.65,23.92Z"/><path class="cls-3" d="M11.55,17.62,3.3,29.72l-.58.85h0A2.34,2.34,0,0,0,5.33,34l.84-.22,4-5.89,5.18-7.59Z"/></svg>