<svg id="圖層_1" data-name="圖層 1" xmlns="http://www.w3.org/2000/svg" viewBox="0 0 634.42 99"><defs><style>.cls-1{fill:#fff;}</style></defs><title>ikalacloud-logo-white</title><path class="cls-1" d="M632.92,0h-15a1.5,1.5,0,0,0-1.5,1.5V34.45c-4.9-4.53-8.94-7.47-16.66-7.47C584.93,27,571,40.69,571,63.11S582,99,599,99c7.1,0,14-3.92,19-8.82h.37l1.26,7.57A1.5,1.5,0,0,0,621.11,99h11.81a1.5,1.5,0,0,0,1.5-1.5v-96A1.5,1.5,0,0,0,632.92,0ZM614.41,77.07c-3.92,5.15-8,7.11-12.74,7.11-9.06,0-14.21-7.11-14.21-21.32,0-13.71,6.49-21.06,14.21-21.06a18.2,18.2,0,0,1,12.7,5.1.18.18,0,0,1,0,.1ZM18.77,36h-15a1.5,1.5,0,0,0-1.5,1.5v60A1.5,1.5,0,0,0,3.77,99h15a1.5,1.5,0,0,0,1.5-1.5v-60A1.5,1.5,0,0,0,18.77,36Zm133-9c-10.69,0-20.46,3.65-28.65,8.31a1.5,1.5,0,0,0-.55,2l5.32,9.3a1.5,1.5,0,0,0,2,.58c6.2-3.33,12.19-5.79,18.41-5.79,8.83,0,11.9,5.14,12.16,11.88-28.79,2.94-41.2,10.65-41.2,25.34,0,11.64,8.45,20.33,21.24,20.33,8.19,0,15.35-3.92,21.62-9.06h.39l1.2,7.79A1.51,1.51,0,0,0,165.21,99h12.56a1.5,1.5,0,0,0,1.5-1.5V57.25C179.27,37.41,169.93,27,151.77,27Zm8.7,51.18c-4.48,4.29-8.45,6.74-13.82,6.74s-9.47-2.33-9.47-7.71c0-6.13,5.89-10.66,23.29-12.86ZM11.27,0A11.28,11.28,0,1,0,22.55,11.27,11.28,11.28,0,0,0,11.27,0ZM81.21,42.29,117,2.5A1.5,1.5,0,0,0,115.91,0H95.73a1.5,1.5,0,0,0-1.12.5L56.27,43.1V1.5A1.5,1.5,0,0,0,54.77,0h-15a1.5,1.5,0,0,0-1.5,1.5v96a1.5,1.5,0,0,0,1.5,1.5h15a1.5,1.5,0,0,0,1.5-1.5V70L68.8,56.09,97.15,98.34a1.5,1.5,0,0,0,1.24.66h18.07a1.51,1.51,0,0,0,1.25-2.34ZM208.91,0h-15a1.5,1.5,0,0,0-1.5,1.5v96a1.5,1.5,0,0,0,1.5,1.5h15a1.5,1.5,0,0,0,1.5-1.5V1.5A1.5,1.5,0,0,0,208.91,0ZM458.68,27c-17.15,0-32.95,13.23-32.95,36.13,0,22.66,15.8,35.89,32.95,35.89s32.95-13.23,32.95-35.89C491.63,40.21,475.82,27,458.68,27Zm0,57.32c-9.31,0-14.58-8.33-14.58-21.19s5.27-21.44,14.58-21.44,14.57,8.46,14.57,21.44S468,84.3,458.68,84.3ZM559.26,27H544a1.49,1.49,0,0,0-1.5,1.49V74.6c-4.73,6.22-8.47,8.71-14.2,8.71-6.72,0-9.71-3.73-9.71-14.56V28.48a1.5,1.5,0,0,0-1.5-1.5h-15.3a1.5,1.5,0,0,0-1.5,1.5V71.11c0,17.43,6.48,27.89,21.42,27.89,9.58,0,16.3-4.61,22.28-11.7h.5l1.21,10.37A1.5,1.5,0,0,0,547.15,99h12.11a1.5,1.5,0,0,0,1.5-1.5v-69A1.5,1.5,0,0,0,559.26,27ZM415.06,0H399.92a1.47,1.47,0,0,0-1.43,1.5v96a1.47,1.47,0,0,0,1.43,1.5h15.14a1.47,1.47,0,0,0,1.43-1.5v-96A1.47,1.47,0,0,0,415.06,0ZM253.77,27c-10.69,0-20.46,3.65-28.65,8.31a1.5,1.5,0,0,0-.55,2l5.32,9.3a1.5,1.5,0,0,0,2,.58c6.2-3.33,12.19-5.79,18.41-5.79,8.83,0,11.9,5.14,12.16,11.88-28.79,2.94-41.2,10.65-41.2,25.34,0,11.64,8.45,20.33,21.24,20.33,8.19,0,15.35-3.92,21.62-9.06h.39l1.2,7.79A1.51,1.51,0,0,0,267.21,99h12.56a1.5,1.5,0,0,0,1.5-1.5V57.25C281.27,37.41,271.93,27,253.77,27Zm8.7,51.18c-4.48,4.29-8.45,6.74-13.82,6.74s-9.47-2.33-9.47-7.71c0-6.13,5.89-10.66,23.29-12.86Zm119.28-3.83a1.49,1.49,0,0,0-2.18-.1c-5,4.91-11.06,8.25-18.61,8.25-15.08,0-24.87-12.5-24.87-33.25,0-20.49,10.82-32.87,25.26-32.87,6.65,0,11.88,2.85,16.39,6.93a1.5,1.5,0,0,0,2.15-.16l8.17-9.84a1.51,1.51,0,0,0-.12-2.05A38.76,38.76,0,0,0,361,0c-24.1,0-44.33,18.43-44.33,49.88,0,31.84,19.59,49.11,43.69,49.11a38.47,38.47,0,0,0,29.55-13.07,1.49,1.49,0,0,0,0-2Z"/></svg>