<svg id="圖層_1" data-name="圖層 1" xmlns="http://www.w3.org/2000/svg" viewBox="0 0 281 99"><defs><style>.cls-1{fill:#fff;}</style></defs><title>ikala-logo-w</title><circle class="cls-1" cx="11.25" cy="11.25" r="11.25"/><rect class="cls-1" x="192.08" width="17.97" height="98.83" rx="1.5"/><path class="cls-1" d="M151.51,27c-10.67,0-20.43,3.64-28.6,8.3a1.49,1.49,0,0,0-.55,2l5.31,9.29a1.5,1.5,0,0,0,2,.58c6.18-3.32,12.17-5.78,18.38-5.78,8.81,0,11.88,5.13,12.13,11.86-28.73,2.93-41.12,10.63-41.12,25.3,0,11.61,8.43,20.29,21.2,20.29,8.17,0,15.33-3.91,21.58-9h.39l1.21,7.77a1.5,1.5,0,0,0,1.48,1.27h12.54a1.5,1.5,0,0,0,1.5-1.5V57.15C179,37.35,169.64,27,151.51,27Zm8.68,51.1c-4.47,4.28-8.43,6.72-13.79,6.72S137,82.45,137,77.07c0-6.11,5.88-10.63,23.24-12.83Z"/><path class="cls-1" d="M253.34,27c-10.68,0-20.43,3.64-28.6,8.3a1.49,1.49,0,0,0-.55,2l5.3,9.29a1.51,1.51,0,0,0,2,.58c6.18-3.32,12.17-5.78,18.38-5.78,8.81,0,11.87,5.13,12.13,11.86-28.73,2.93-41.12,10.63-41.12,25.3,0,11.61,8.43,20.29,21.2,20.29,8.17,0,15.32-3.91,21.58-9h.38l1.21,7.77a1.5,1.5,0,0,0,1.48,1.27H279.3a1.5,1.5,0,0,0,1.49-1.5V57.15C280.79,37.35,271.47,27,253.34,27ZM262,78.05c-4.47,4.28-8.43,6.72-13.79,6.72s-9.45-2.32-9.45-7.7c0-6.11,5.87-10.63,23.24-12.83Z"/><rect class="cls-1" x="2.27" y="35.94" width="17.97" height="62.89" rx="1.5"/><path class="cls-1" d="M81.07,42.22,116.82,2.5A1.5,1.5,0,0,0,115.71,0H95.56a1.48,1.48,0,0,0-1.11.5L56.18,43V1.5A1.5,1.5,0,0,0,54.68,0h-15a1.5,1.5,0,0,0-1.5,1.5V97.33a1.5,1.5,0,0,0,1.5,1.5h15a1.5,1.5,0,0,0,1.5-1.5V69.89L68.68,56,97,98.17a1.52,1.52,0,0,0,1.25.66h18a1.5,1.5,0,0,0,1.25-2.33Z"/></svg>