<svg width="58" height="58" viewBox="0 0 58 58" fill="none" xmlns="http://www.w3.org/2000/svg">
<path d="M15.1797 14.5H8.38281C5.00443 14.5 2.26562 11.7612 2.26562 8.38281C2.26562 5.00431 5.00443 2.26562 8.38281 2.26562H15.1797C11.8013 2.26562 9.0625 5.00431 9.0625 8.38281C9.0625 11.7612 11.8013 14.5 15.1797 14.5ZM9.0625 29C9.0625 25.6215 11.8013 22.8828 15.1797 22.8828H8.38281C5.00443 22.8828 2.26562 25.6215 2.26562 29C2.26562 32.3784 5.00443 35.1172 8.38281 35.1172H15.1797C11.8013 35.1172 9.0625 32.3784 9.0625 29ZM9.0625 49.6172C9.0625 46.2388 11.8013 43.5 15.1797 43.5H8.38281C5.00443 43.5 2.26562 46.2388 2.26562 49.6172C2.26562 52.9956 5.00443 55.7344 8.38281 55.7344H15.1797C11.8013 55.7344 9.0625 52.9956 9.0625 49.6172Z" fill="#F3BEBA"/>
<path d="M17.8288 16.7656H8.38281C3.76048 16.7656 0 13.0051 0 8.38281C0 3.76048 3.76048 0 8.38281 0H17.8984C19.1497 0 20.1641 1.01432 20.1641 2.26562C20.1641 3.51693 19.1497 4.53125 17.8984 4.53125H8.38281C6.25902 4.53125 4.53125 6.25902 4.53125 8.38281C4.53125 10.5066 6.25902 12.2344 8.38281 12.2344H17.8288C19.0801 12.2344 20.0944 13.2487 20.0944 14.5C20.0944 15.7513 19.0801 16.7656 17.8288 16.7656ZM58 8.38281C58 3.76048 54.2395 0 49.6172 0H26.9609C25.7096 0 24.6953 1.01432 24.6953 2.26562C24.6953 3.51693 25.7096 4.53125 26.9609 4.53125H49.6172C51.741 4.53125 53.4688 6.25902 53.4688 8.38281C53.4688 10.5066 51.741 12.2344 49.6172 12.2344H26.8913C25.64 12.2344 24.6256 13.2487 24.6256 14.5C24.6256 15.7513 25.64 16.7656 26.8913 16.7656H49.6172C54.2395 16.7656 58 13.0051 58 8.38281ZM39.5352 35.1172C39.5352 33.8659 38.5208 32.8516 37.2695 32.8516H8.38281C6.25902 32.8516 4.53125 31.1238 4.53125 29C4.53125 26.8762 6.25902 25.1484 8.38281 25.1484H37.2695C38.5208 25.1484 39.5352 24.1341 39.5352 22.8828C39.5352 21.6315 38.5208 20.6172 37.2695 20.6172H8.38281C3.76048 20.6172 0 24.3777 0 29C0 33.6223 3.76048 37.3828 8.38281 37.3828H37.2695C38.5208 37.3828 39.5352 36.3685 39.5352 35.1172ZM57.8867 49.6172C57.8867 44.9949 54.1262 41.2344 49.5039 41.2344H32.5117C31.2604 41.2344 30.2461 42.2487 30.2461 43.5C30.2461 44.7513 31.2604 45.7656 32.5117 45.7656H49.5039C51.6277 45.7656 53.3555 47.4934 53.3555 49.6172C53.3555 51.741 51.6277 53.4688 49.5039 53.4688H32.5117C31.2604 53.4688 30.2461 54.4831 30.2461 55.7344C30.2461 56.9857 31.2604 58 32.5117 58H49.5039C54.1262 58 57.8867 54.2395 57.8867 49.6172ZM25.7148 55.7344C25.7148 54.4831 24.7005 53.4688 23.4492 53.4688H8.38281C6.25902 53.4688 4.53125 51.741 4.53125 49.6172C4.53125 47.4934 6.25902 45.7656 8.38281 45.7656H23.4492C24.7005 45.7656 25.7148 44.7513 25.7148 43.5C25.7148 42.2487 24.7005 41.2344 23.4492 41.2344H8.38281C3.76048 41.2344 0 44.9949 0 49.6172C0 54.2395 3.76048 58 8.38281 58H23.4492C24.7005 58 25.7148 56.9857 25.7148 55.7344Z" fill="#3E3D3D"/>
<path d="M49.5039 37.3828H46.332C45.0807 37.3828 44.0664 36.3685 44.0664 35.1172C44.0664 33.8659 45.0807 32.8516 46.332 32.8516H49.5039C51.6277 32.8516 53.3555 31.1238 53.3555 29C53.3555 26.8762 51.6277 25.1484 49.5039 25.1484H46.332C45.0807 25.1484 44.0664 24.1341 44.0664 22.8828C44.0664 21.6315 45.0807 20.6172 46.332 20.6172H49.5039C54.1262 20.6172 57.8867 24.3777 57.8867 29C57.8867 33.6223 54.1262 37.3828 49.5039 37.3828Z" fill="#F54337"/>
</svg>
