<svg width="60" height="60" viewBox="0 0 60 60" fill="none" xmlns="http://www.w3.org/2000/svg">
<g clip-path="url(#clip0)">
<path d="M33.2812 56.59C32.2757 57.2632 31.301 57.6562 30 57.6562C26.505 57.6562 23.6719 54.823 23.6719 51.3281V41.7188C23.6719 38.2239 26.505 35.3906 30 35.3906C31.301 35.3906 32.2757 35.7837 33.2812 36.4569C31.5855 37.5921 30.4688 39.5248 30.4688 41.7188V51.3281C30.4688 53.522 31.5855 55.4548 33.2812 56.59ZM51.7969 51.3281V30.8203C51.7969 28.6264 52.9137 26.6938 54.6094 25.5585C53.6038 24.8852 52.6291 24.4922 51.3281 24.4922C47.8331 24.4922 45 27.3253 45 30.8203V51.3281C45 54.823 47.8331 57.6562 51.3281 57.6562C52.6291 57.6562 53.6038 57.2632 54.6094 56.59C52.9137 55.4548 51.7969 53.522 51.7969 51.3281ZM9.14062 51.3281V29.0625C9.14062 26.8686 10.2574 24.936 11.9531 23.8007C10.9475 23.1275 9.97289 22.7344 8.67188 22.7344C5.17699 22.7344 2.34375 25.5675 2.34375 29.0625V51.3281C2.34375 54.823 5.17699 57.6562 8.67188 57.6562C9.97289 57.6562 10.9475 57.2632 11.9531 56.59C10.2574 55.4548 9.14062 53.522 9.14062 51.3281Z" fill="#FFC3C3"/>
<path d="M8.67188 60C3.89016 60 0 56.1098 0 51.3281V29.0625C0 24.2808 3.89016 20.3906 8.67188 20.3906C13.4536 20.3906 17.3438 24.2808 17.3438 29.0625V51.3281C17.3438 56.1098 13.4536 60 8.67188 60ZM8.67188 25.0781C6.47484 25.0781 4.6875 26.8655 4.6875 29.0625V51.3281C4.6875 53.5252 6.47484 55.3125 8.67188 55.3125C10.8689 55.3125 12.6562 53.5252 12.6562 51.3281V29.0625C12.6562 26.8656 10.8689 25.0781 8.67188 25.0781ZM30 60C25.2183 60 21.3281 56.1098 21.3281 51.3281V41.7188C21.3281 36.937 25.2183 33.0469 30 33.0469C34.7817 33.0469 38.6719 36.937 38.6719 41.7188V51.3281C38.6719 56.1098 34.7817 60 30 60ZM30 37.7344C27.803 37.7344 26.0156 39.5217 26.0156 41.7188V51.3281C26.0156 53.5252 27.803 55.3125 30 55.3125C32.197 55.3125 33.9844 53.5252 33.9844 51.3281V41.7188C33.9844 39.5218 32.197 37.7344 30 37.7344ZM51.3281 60C46.5464 60 42.6562 56.1098 42.6562 51.3281V30.8203C42.6562 26.0386 46.5464 22.1484 51.3281 22.1484C56.1098 22.1484 60 26.0386 60 30.8203V51.3281C60 56.1098 56.1098 60 51.3281 60ZM51.3281 26.8359C49.1311 26.8359 47.3438 28.6233 47.3438 30.8203V51.3281C47.3438 53.5252 49.1311 55.3125 51.3281 55.3125C53.5252 55.3125 55.3125 53.5252 55.3125 51.3281V30.8203C55.3125 28.6234 53.5252 26.8359 51.3281 26.8359Z" fill="#3E3D3D"/>
<path d="M32.2168 28.5879C30.4291 28.5879 28.633 28.0089 27.1357 26.8247C27.0938 26.7915 12.133 13.2034 12.133 13.2034C10.8015 12.192 8.95298 12.2549 7.69298 13.3575L3.99243 17.0179C3.07204 17.9282 1.58797 17.92 0.678014 16.9998C-0.232416 16.0794 -0.224213 14.5955 0.696061 13.6853C0.696061 13.6853 4.49446 9.92941 4.522 9.90457C7.5036 7.22297 11.9506 7.08223 15.0959 9.56965C15.1378 9.60281 30.0985 23.1909 30.0985 23.1909C31.5472 24.2909 33.6156 24.1001 34.8372 22.7425C34.8519 22.7262 34.8668 22.7101 34.8819 22.6943L47.8733 9.04805C48.7658 8.11055 50.2493 8.07399 51.1868 8.9666C52.1243 9.8591 52.1608 11.3426 51.2682 12.2802L38.2979 25.9043C36.6894 27.6761 34.4598 28.5878 32.2168 28.5879ZM60.0004 13.3594V7.03125C60.0004 3.15422 56.8462 0 52.9692 0H46.6411C45.3466 0 44.2973 1.0493 44.2973 2.34375C44.2973 3.6382 45.3466 4.6875 46.6411 4.6875H52.9692C54.2615 4.6875 55.3129 5.73891 55.3129 7.03125V13.3594C55.3129 14.6538 56.3622 15.7031 57.6567 15.7031C58.9511 15.7031 60.0004 14.6538 60.0004 13.3594Z" fill="#F54337"/>
</g>
<defs>
<clipPath id="clip0">
<rect width="60" height="60" fill="white"/>
</clipPath>
</defs>
</svg>
