<svg width="60" height="60" viewBox="0 0 60 60" fill="none" xmlns="http://www.w3.org/2000/svg">
<path d="M9.375 30C9.375 15.9169 19.9015 4.29234 33.5156 2.56523C32.3644 2.4191 31.191 2.34375 30 2.34375C14.7259 2.34375 2.34375 14.7259 2.34375 30C2.34375 45.2741 14.7259 57.6562 30 57.6562C31.191 57.6562 32.3644 57.5809 33.5156 57.4348C19.9015 55.7077 9.375 44.0831 9.375 30Z" fill="#B3D5E1"/>
<path d="M51.2133 8.78672C45.5469 3.12059 38.0133 0 30 0C21.9867 0 14.4531 3.12059 8.78672 8.78672C3.12059 14.4531 0 21.9867 0 30C0 38.0133 3.12059 45.5469 8.78672 51.2133C14.4531 56.8794 21.9867 60 30 60C38.0133 60 45.5469 56.8794 51.2133 51.2133C56.8794 45.5469 60 38.0133 60 30C60 21.9867 56.8794 14.4531 51.2133 8.78672ZM32.3438 55.2029V50.2734C32.3438 48.979 31.2945 47.9297 30 47.9297C28.7055 47.9297 27.6562 48.979 27.6562 50.2734V55.2029C15.5657 54.0875 5.91246 44.4342 4.79695 32.3438H9.72656C11.021 32.3438 12.0703 31.2945 12.0703 30C12.0703 28.7055 11.021 27.6562 9.72656 27.6562H4.79695C5.91246 15.5657 15.5657 5.91246 27.6562 4.79695V9.60938C27.6562 10.9038 28.7055 11.9531 30 11.9531C31.2945 11.9531 32.3438 10.9038 32.3438 9.60938V4.79695C44.4343 5.91246 54.0875 15.5657 55.203 27.6562H50.2734C48.979 27.6562 47.9297 28.7055 47.9297 30C47.9297 31.2945 48.979 32.3438 50.2734 32.3438H55.203C54.0875 44.4342 44.4343 54.0875 32.3438 55.2029ZM30.0586 15.5925C26.1816 15.5925 23.0273 18.7467 23.0273 22.6238C23.0273 26.5008 26.1816 29.655 30.0586 29.655C33.9356 29.655 37.0898 26.5008 37.0898 22.6238C37.0898 18.7467 33.9356 15.5925 30.0586 15.5925ZM30.0586 24.9675C28.7663 24.9675 27.7148 23.9161 27.7148 22.6238C27.7148 21.3314 28.7663 20.28 30.0586 20.28C31.3509 20.28 32.4023 21.3314 32.4023 22.6238C32.4023 23.9161 31.3509 24.9675 30.0586 24.9675Z" fill="#3E3D3D"/>
<path d="M38.3203 45.2148C37.0259 45.2148 35.9766 44.1655 35.9766 42.8711C35.9766 40.0423 33.6599 37.7408 30.8123 37.7408H29.3048C26.4573 37.7408 24.1406 40.0423 24.1406 42.8711C24.1406 44.1655 23.0913 45.2148 21.7969 45.2148C20.5024 45.2148 19.4531 44.1655 19.4531 42.8711C19.4531 37.4576 23.8726 33.0533 29.3048 33.0533H30.8123C36.2446 33.0533 40.6641 37.4576 40.6641 42.8711C40.6641 44.1655 39.6148 45.2148 38.3203 45.2148Z" fill="#73C0DB"/>
</svg>
