<svg width="58" height="44" viewBox="0 0 58 44" fill="none" xmlns="http://www.w3.org/2000/svg">
<path d="M15.6328 16.3594C15.6328 15.1081 14.6185 14.0938 13.3672 14.0938C12.1159 14.0938 11.1016 15.1081 11.1016 16.3594C11.1016 23.1679 16.2689 28.707 23.7891 28.707C25.0404 28.707 26.0547 27.6927 26.0547 26.4414C26.0547 25.1901 25.0404 24.1758 23.7891 24.1758C19.1096 24.1758 15.6328 20.6694 15.6328 16.3594Z" fill="#3E3D3D"/>
<path d="M41.2344 16.3594C35.3004 16.3594 30.4727 21.1871 30.4727 27.1211C30.4727 33.0551 35.3004 37.8828 41.2344 37.8828C47.1684 37.8828 51.9961 33.0551 51.9961 27.1211C51.9961 21.1871 47.1684 16.3594 41.2344 16.3594ZM41.2344 33.3516C37.7989 33.3516 35.0039 30.5566 35.0039 27.1211C35.0039 23.6856 37.7989 20.8906 41.2344 20.8906C44.6699 20.8906 47.4648 23.6856 47.4648 27.1211C47.4648 30.5566 44.6699 33.3516 41.2344 33.3516Z" fill="#3E3D3D"/>
<path d="M44.4062 0.5H13.5938C6.09816 0.5 0 6.59816 0 14.0938V30.4062C0 37.9018 6.09816 44 13.5938 44H31.9453C33.1966 44 34.2109 42.9857 34.2109 41.7344C34.2109 40.4831 33.1966 39.4688 31.9453 39.4688H13.5938C8.59669 39.4688 4.53125 35.4033 4.53125 30.4062V14.0938C4.53125 9.09669 8.59669 5.03125 13.5938 5.03125H44.4062C49.4033 5.03125 53.4688 9.09669 53.4688 14.0938V17.1523C53.4688 18.4036 54.4831 19.418 55.7344 19.418C56.9857 19.418 58 18.4036 58 17.1523V14.0938C58 6.59816 51.9018 0.5 44.4062 0.5Z" fill="#3E3D3D"/>
</svg>
