<svg width="50" height="60" viewBox="0 0 50 60" fill="none" xmlns="http://www.w3.org/2000/svg">
<path d="M9.53125 45.9423V14.0577C9.53125 7.58824 14.763 2.34375 21.2167 2.34375H14.1016C7.62941 2.34375 2.38281 7.59035 2.38281 14.0625V45.9375C2.38281 52.4095 7.62941 57.6562 14.1016 57.6562H21.2167C14.763 57.6562 9.53125 52.4118 9.53125 45.9423Z" fill="#FFC3C3"/>
<path d="M35.7812 60H14.2188C6.46469 60 0.15625 53.6916 0.15625 45.9375V14.0625C0.15625 6.30844 6.46469 0 14.2188 0H35.7812C43.5353 0 49.8438 6.30844 49.8438 14.0625V45.9375C49.8438 53.6916 43.5353 60 35.7812 60ZM14.2188 4.6875C9.04938 4.6875 4.84375 8.89313 4.84375 14.0625V45.9375C4.84375 51.1069 9.04938 55.3125 14.2188 55.3125H35.7812C40.9506 55.3125 45.1562 51.1069 45.1562 45.9375V14.0625C45.1562 8.89313 40.9506 4.6875 35.7812 4.6875H14.2188ZM40.3516 21.5625C40.3516 20.268 39.3023 19.2188 38.0078 19.2188H34.0234C32.0849 19.2188 30.5078 17.6416 30.5078 15.7031V11.7188C30.5078 10.4243 29.4585 9.375 28.1641 9.375C26.8696 9.375 25.8203 10.4243 25.8203 11.7188V15.7031C25.8203 20.2263 29.5002 23.9062 34.0234 23.9062H38.0078C39.3023 23.9062 40.3516 22.857 40.3516 21.5625ZM31.7969 46.5234V33.8672C31.7969 32.5727 30.7476 31.5234 29.4531 31.5234C28.1587 31.5234 27.1094 32.5727 27.1094 33.8672V46.5234C27.1094 47.8179 28.1587 48.8672 29.4531 48.8672C30.7476 48.8672 31.7969 47.8179 31.7969 46.5234ZM40.4688 46.5234V40.8984C40.4688 39.604 39.4195 38.5547 38.125 38.5547C36.8305 38.5547 35.7812 39.604 35.7812 40.8984V46.5234C35.7812 47.8179 36.8305 48.8672 38.125 48.8672C39.4195 48.8672 40.4688 47.8179 40.4688 46.5234ZM14.2188 46.5234V37.3828C14.2188 36.0884 13.1695 35.0391 11.875 35.0391C10.5805 35.0391 9.53125 36.0884 9.53125 37.3828V46.5234C9.53125 47.8179 10.5805 48.8672 11.875 48.8672C13.1695 48.8672 14.2188 47.8179 14.2188 46.5234Z" fill="#3E3D3D"/>
<path d="M20.6641 48.8672C19.3696 48.8672 18.3203 47.8179 18.3203 46.5234V26.8359C18.3203 25.5415 19.3696 24.4922 20.6641 24.4922C21.9585 24.4922 23.0078 25.5415 23.0078 26.8359V46.5234C23.0078 47.8179 21.9585 48.8672 20.6641 48.8672Z" fill="#F54337"/>
</svg>
