<svg width="84" height="50" viewBox="0 0 84 50" fill="none" xmlns="http://www.w3.org/2000/svg">
<path d="M23.4997 29.5845L17.4414 19.0927C17.2183 18.706 16.933 18.3587 16.597 18.0647L23.4997 6.1317C23.768 5.66704 23.9422 5.15406 24.0122 4.62208C24.0823 4.09009 24.0468 3.54952 23.9078 3.03125C23.7689 2.51298 23.5292 2.02716 23.2024 1.60155C22.8757 1.17593 22.4683 0.81887 22.0035 0.550752C21.0659 0.0117352 19.9528 -0.133452 18.9083 0.14703C17.8638 0.427512 16.9732 1.11077 16.4317 2.04696L8.17046 16.4124V4.08474C8.17046 3.0014 7.7401 1.96243 6.97407 1.19639C6.20803 0.430355 5.16906 0 4.08572 0C3.00238 0 1.96341 0.430355 1.19737 1.19639C0.431331 1.96243 0.000975328 3.0014 0.000975328 4.08474V32.3567C-0.00469112 32.4428 0.0144195 32.5288 0.0560505 32.6045V32.733C0.0709511 32.8222 0.0987814 32.9088 0.138663 32.99V33.1094L0.239634 33.348L0.303889 33.4765L0.423218 33.6876L0.505831 33.8253L0.625161 34.0089L0.735311 34.1558L0.86382 34.3118L0.992328 34.4587L1.1392 34.6056L1.27688 34.7249L1.46965 34.8809L1.58898 34.9727L1.83681 35.1288H1.90107L2.18562 35.2756H2.26824L2.54361 35.3858H2.64458L2.89242 35.4592H4.63647L4.87513 35.4042H5.01282L5.25147 35.3307L5.38916 35.2848L5.60946 35.193L5.75633 35.1196L5.93991 35.0186L6.10514 34.9177L6.26119 34.8167L6.43559 34.6882L6.5641 34.578L6.7385 34.422L6.85783 34.3026L7.0047 34.1374L7.12403 33.9906L7.24336 33.8345L7.37187 33.6417L7.43612 33.5408L11.8605 25.8853L16.2849 33.5408C16.553 34.0056 16.91 34.413 17.3357 34.7397C17.7613 35.0665 18.2471 35.3062 18.7654 35.4451C19.2836 35.5841 19.8242 35.6195 20.3562 35.5495C20.8882 35.4795 21.4012 35.3053 21.8658 35.037C22.7939 34.5193 23.4838 33.6602 23.7888 32.6422C24.0939 31.6242 23.9902 30.5273 23.4997 29.5845Z" fill="white"/>
<path d="M79.6578 27.5651H71.4883V4.08474C71.4883 3.0014 71.058 1.96243 70.2919 1.19639C69.5259 0.430355 68.4869 0 67.4036 0C66.3202 0 65.2813 0.430355 64.5152 1.19639C63.7492 1.96243 63.3188 3.0014 63.3188 4.08474V31.6223C63.3188 32.7057 63.7492 33.7446 64.5152 34.5107C65.2813 35.2767 66.3202 35.7071 67.4036 35.7071H79.6578C80.7412 35.7071 81.7801 35.2767 82.5462 34.5107C83.3122 33.7446 83.7426 32.7057 83.7426 31.6223C83.7353 30.5438 83.3017 29.5119 82.5365 28.7518C81.7712 27.9917 80.7364 27.5651 79.6578 27.5651Z" fill="white"/>
<path d="M41.5461 34.5872H41.5369C37.6676 34.5861 33.9185 33.2434 30.9283 30.7878C27.9381 28.3322 25.8919 24.9157 25.1383 21.1206C24.3848 17.3254 24.9706 13.3863 26.7958 9.97465C28.6211 6.56296 31.5728 3.88973 35.1482 2.41048C37.4329 1.46407 39.8992 1.03613 42.3692 1.15748C44.8392 1.27882 47.2516 1.94644 49.4326 3.11225C51.6136 4.27805 53.5089 5.91303 54.9821 7.89942C56.4552 9.88581 57.4695 12.1742 57.9518 14.5997C58.4342 17.0252 58.3726 19.5275 57.7716 21.9264C57.1706 24.3253 56.045 26.561 54.4761 28.4726C52.9071 30.3842 50.9337 31.924 48.698 32.9812C46.4623 34.0383 44.02 34.5865 41.547 34.5863L41.5461 34.5872ZM41.5369 9.06907C39.7958 9.06907 38.0938 9.58537 36.6462 10.5527C35.1986 11.52 34.0703 12.8949 33.404 14.5034C32.7378 16.112 32.5635 17.882 32.9033 19.5896C33.243 21.2972 34.0815 22.8657 35.3127 24.0968C36.5439 25.3279 38.1125 26.1662 39.8201 26.5057C41.5278 26.8453 43.2977 26.6708 44.9062 26.0044C46.5147 25.338 47.8895 24.2096 48.8566 22.7619C49.8238 21.3141 50.3399 19.6121 50.3397 17.871C50.3461 16.7133 50.1227 15.5658 49.6825 14.495C49.2424 13.4241 48.5942 12.4513 47.7755 11.6327C46.9568 10.814 45.9839 10.166 44.913 9.72592C43.8421 9.28588 42.6946 9.06262 41.5369 9.06907Z" fill="white"/>
<path d="M39.2971 15.6597C39.9663 15.6597 40.5088 15.1172 40.5088 14.448C40.5088 13.7789 39.9663 13.2364 39.2971 13.2364C38.6279 13.2364 38.0854 13.7789 38.0854 14.448C38.0854 15.1172 38.6279 15.6597 39.2971 15.6597Z" fill="white"/>
<path d="M43.7859 15.6597C44.4551 15.6597 44.9975 15.1172 44.9975 14.448C44.9975 13.7789 44.4551 13.2364 43.7859 13.2364C43.1167 13.2364 42.5742 13.7789 42.5742 14.448C42.5742 15.1172 43.1167 15.6597 43.7859 15.6597Z" fill="white"/>
<path d="M41.5368 22.4982C44.465 22.4982 46.8149 19.8637 46.8149 17.6883C46.8149 17.4972 46.7389 17.3139 46.6038 17.1788C46.4687 17.0436 46.2854 16.9677 46.0943 16.9677C45.9032 16.9677 45.7199 17.0436 45.5848 17.1788C45.4496 17.3139 45.3737 17.4972 45.3737 17.6883C45.2453 18.6146 44.786 19.4632 44.0808 20.0773C43.3756 20.6915 42.472 21.0298 41.5368 21.0298C40.6017 21.0298 39.698 20.6915 38.9928 20.0773C38.2876 19.4632 37.8284 18.6146 37.6999 17.6883C37.6999 17.5937 37.6813 17.5 37.6451 17.4125C37.6089 17.3251 37.5558 17.2457 37.4889 17.1788C37.422 17.1119 37.3425 17.0588 37.2551 17.0226C37.1677 16.9864 37.074 16.9677 36.9794 16.9677C36.8847 16.9677 36.791 16.9864 36.7036 17.0226C36.6162 17.0588 36.5367 17.1119 36.4698 17.1788C36.4029 17.2457 36.3499 17.3251 36.3136 17.4125C36.2774 17.5 36.2588 17.5937 36.2588 17.6883C36.2588 19.8637 38.6178 22.4982 41.5368 22.4982Z" fill="white"/>
<path d="M28.6675 50H28.5758C28.3972 49.9999 28.2196 49.9748 28.0479 49.9257C27.8962 49.8804 27.7533 49.8093 27.6257 49.7155C27.5012 49.6206 27.3901 49.5095 27.2953 49.385C27.1921 49.2501 27.097 49.1091 27.0107 48.9628L25.7531 46.9433H24.9637V49.385C24.9649 49.5289 24.9132 49.6682 24.8184 49.7765C24.7237 49.8847 24.5925 49.9545 24.4497 49.9725C24.334 49.9798 24.2166 49.9835 24.1009 49.9835C23.9852 49.9835 23.8677 49.9835 23.7512 49.9725H23.7319C23.5369 49.9723 23.3424 49.9539 23.1508 49.9174C22.9946 49.8909 22.8468 49.828 22.7194 49.7338C22.6002 49.6349 22.5111 49.5045 22.4624 49.3575C22.3952 49.1564 22.3638 48.9452 22.3697 48.7333V41.702C22.3641 41.6133 22.3767 41.5244 22.4067 41.4408C22.4367 41.3571 22.4834 41.2805 22.5441 41.2155C22.6776 41.0899 22.8376 40.9958 23.0122 40.9401C23.3941 40.8123 23.7887 40.7258 24.189 40.6822C24.6573 40.6271 25.1284 40.5995 25.5999 40.5996H25.621C25.7495 40.5895 25.8807 40.584 26.0102 40.584C26.9835 40.5825 27.9338 40.8799 28.7327 41.4358C29.0748 41.7196 29.3471 42.0784 29.5284 42.4843C29.7097 42.8902 29.7952 43.3323 29.7782 43.7765C29.7927 44.3404 29.6253 44.8939 29.3009 45.3553C29.0029 45.7758 28.6142 46.124 28.1636 46.3742C28.5069 46.8488 28.8621 47.3123 29.2183 47.7511C29.3927 47.9604 29.5625 48.1743 29.7241 48.3845C29.8746 48.5876 29.9397 48.8415 29.9054 49.092C29.8711 49.3424 29.7401 49.5695 29.5405 49.7246C29.2851 49.9047 28.98 50.0009 28.6675 50ZM24.9683 42.72V44.9597H25.8862C25.9165 44.9597 25.9468 44.9597 25.978 44.9597C26.2794 44.9593 26.5713 44.8545 26.8042 44.6632C26.913 44.5624 27.0002 44.4403 27.0601 44.3046C27.1201 44.1688 27.1517 44.0222 27.153 43.8738C27.1647 43.7112 27.1374 43.5481 27.0736 43.398C27.0098 43.248 26.9111 43.1153 26.7858 43.011C26.4858 42.8144 26.1348 42.7101 25.7761 42.7108C25.7256 42.7108 25.6751 42.7108 25.6246 42.7172H24.9637L24.9683 42.72Z" fill="white"/>
<path d="M34.913 49.9908C34.8083 49.9908 34.7018 49.9908 34.5972 49.9816H34.5293C34.0736 49.9815 33.6194 49.9319 33.1744 49.8338C32.7867 49.7493 32.4169 49.5971 32.0821 49.384C31.7885 49.1936 31.5484 48.9314 31.3845 48.6222C31.2134 48.2904 31.127 47.9215 31.133 47.5482C31.115 47.2562 31.1607 46.9638 31.2669 46.6912C31.3731 46.4186 31.5372 46.1723 31.748 45.9694C32.2934 45.5461 32.9581 45.3053 33.6481 45.2809L35.6032 45.0698V44.9689C35.6105 44.839 35.5784 44.7101 35.5113 44.5987C35.4442 44.4874 35.3451 44.3989 35.2269 44.3447C34.9202 44.2218 34.5926 44.1595 34.2622 44.1611C34.2163 44.1611 34.1704 44.1611 34.1254 44.1611C33.755 44.1607 33.3856 44.2007 33.0239 44.2804C32.8146 44.3281 32.6071 44.3832 32.408 44.4456C32.2805 44.4891 32.1418 44.4851 32.017 44.4345C31.8923 44.384 31.7899 44.2901 31.7287 44.1703C31.6393 43.9906 31.5925 43.7927 31.5919 43.592C31.5771 43.3716 31.6423 43.1532 31.7755 42.977C31.9329 42.7999 32.1316 42.6644 32.3538 42.5823C32.6842 42.4632 33.0274 42.3831 33.3764 42.3436C33.7447 42.2965 34.1157 42.272 34.487 42.2702H34.5384C35.0157 42.2701 35.4913 42.3255 35.9557 42.4354C36.3598 42.5283 36.7428 42.6965 37.0848 42.9311C37.4006 43.1487 37.6564 43.4427 37.8283 43.7857C38.0052 44.1676 38.0931 44.5847 38.0853 45.0056V48.3468C38.0944 48.5781 38.0157 48.8044 37.865 48.9802C37.7161 49.1462 37.5428 49.2886 37.351 49.4024C36.5961 49.7882 35.7607 49.9898 34.913 49.9908ZM35.6161 46.7404L34.5421 46.8322C34.3019 46.8419 34.0668 46.9046 33.8537 47.0158C33.771 47.0576 33.702 47.1222 33.6547 47.2018C33.6074 47.2815 33.5837 47.373 33.5866 47.4656C33.5843 47.559 33.6038 47.6516 33.6437 47.736C33.6835 47.8205 33.7425 47.8945 33.816 47.9521C34.0163 48.077 34.2473 48.1438 34.4834 48.1449C34.5219 48.1449 34.5605 48.1449 34.5981 48.1393C34.7856 48.137 34.9726 48.1189 35.1571 48.0852C35.317 48.0665 35.4723 48.0199 35.6161 47.9475V46.7404Z" fill="white"/>
<path d="M43.4653 49.9853C42.8699 49.9855 42.2779 49.8942 41.7102 49.7145C41.2237 49.5534 40.7787 49.287 40.4068 48.9343C40.0509 48.5908 39.7751 48.173 39.599 47.7107C39.4076 47.1985 39.3142 46.6548 39.3237 46.108C39.3155 45.5202 39.4247 44.9366 39.6449 44.3915C39.8267 43.9338 40.1091 43.5229 40.4711 43.189C40.829 42.8669 41.2514 42.6247 41.7102 42.4786C42.1909 42.3263 42.6921 42.2489 43.1964 42.2491H43.2432C43.4372 42.2497 43.6308 42.2681 43.8215 42.3042C43.9784 42.3313 44.1322 42.3744 44.2804 42.4327V40.5353C44.2792 40.4017 44.3257 40.272 44.4115 40.1695C44.4973 40.0671 44.6168 39.9986 44.7486 39.9763C44.9704 39.9403 45.1948 39.9219 45.4196 39.9212C45.5169 39.9084 45.6151 39.9084 45.7133 39.9084C45.8115 39.9084 45.9097 39.9084 46.007 39.9212C46.1665 39.9463 46.3175 40.0093 46.4476 40.1048C46.5734 40.1976 46.6691 40.3253 46.723 40.472C46.7908 40.6665 46.8219 40.8719 46.8148 41.0778V48.155C46.8153 48.3838 46.7543 48.6085 46.638 48.8056C46.5217 49.0026 46.3545 49.1647 46.1539 49.2748C45.8046 49.4897 45.4279 49.6564 45.034 49.7705C44.5233 49.9132 43.9956 49.9855 43.4653 49.9853ZM43.4212 44.24C42.9983 44.238 42.5915 44.4029 42.2895 44.699C41.971 45.0946 41.8163 45.5972 41.8571 46.1034C41.8267 46.6084 41.9803 47.1073 42.2895 47.5078C42.4246 47.6573 42.5894 47.7771 42.7734 47.8594C42.9573 47.9417 43.1564 47.9849 43.3579 47.9861C43.39 47.9861 43.4231 47.9861 43.4552 47.9861H43.4754C43.6345 47.9861 43.7923 47.9581 43.9417 47.9035C44.0649 47.863 44.18 47.8008 44.2813 47.7199L44.2437 44.4273C44.0358 44.3072 43.8 44.2439 43.5599 44.2437H43.5286C43.4928 44.2419 43.4543 44.24 43.4212 44.24Z" fill="white"/>
<path d="M51.8139 50C51.7093 50 51.6028 50 51.4981 49.9908H51.4302C50.9727 49.9912 50.5166 49.9416 50.0699 49.843C49.6821 49.7586 49.3123 49.6063 48.9775 49.3932C48.6841 49.2022 48.444 48.9397 48.2799 48.6304C48.115 48.2943 48.0361 47.9224 48.0504 47.5482C48.0325 47.2562 48.0782 46.9638 48.1844 46.6912C48.2905 46.4186 48.4547 46.1723 48.6655 45.9694C49.2108 45.5461 49.8756 45.3053 50.5655 45.2809L52.5207 45.0698V44.9689C52.5279 44.839 52.4959 44.7101 52.4288 44.5987C52.3616 44.4874 52.2625 44.3989 52.1444 44.3447C51.8376 44.2218 51.51 44.1595 51.1796 44.1611C51.1337 44.1611 51.0878 44.1611 51.0429 44.1611C50.6724 44.161 50.3031 44.2013 49.9414 44.2813C49.7321 44.3291 49.5246 44.3841 49.3264 44.4466C49.1989 44.49 49.0601 44.486 48.9354 44.4355C48.8107 44.3849 48.7083 44.2911 48.6471 44.1712C48.5573 43.9913 48.5101 43.7931 48.5094 43.592C48.4946 43.3716 48.5598 43.1532 48.693 42.977C48.8504 42.7999 49.049 42.6644 49.2713 42.5823C49.6017 42.4632 49.9449 42.3831 50.2938 42.3436C50.6622 42.2965 51.0331 42.272 51.4045 42.2702H51.4559C51.9332 42.2701 52.4088 42.3255 52.8732 42.4354C53.2824 42.5266 53.6706 42.6948 54.0169 42.9311C54.313 43.1552 54.5494 43.4487 54.7054 43.7857C54.8888 44.166 54.983 44.5833 54.9807 45.0056V48.356C54.9898 48.5873 54.9111 48.8136 54.7604 48.9893C54.6118 49.1557 54.4384 49.2981 54.2464 49.4116C53.4932 49.7964 52.6598 49.998 51.8139 50ZM52.5482 46.7404L51.4743 46.8322C51.2341 46.8418 50.9989 46.9045 50.7858 47.0158C50.7032 47.0576 50.6342 47.1221 50.5871 47.2018C50.5399 47.2815 50.5165 47.373 50.5196 47.4656C50.517 47.5589 50.5362 47.6516 50.5759 47.7361C50.6156 47.8206 50.6747 47.8946 50.7482 47.9521C50.9487 48.0753 51.1793 48.1404 51.4146 48.1403C51.4532 48.1403 51.4917 48.1403 51.5294 48.1348C51.7172 48.1324 51.9045 48.1142 52.0893 48.0806C52.2491 48.0619 52.4045 48.0153 52.5482 47.9429V46.7404Z" fill="white"/>
<path d="M60.9325 42.6805C60.5882 42.4793 60.1924 42.3836 59.7943 42.4051C59.5054 42.4043 59.2169 42.4258 58.9314 42.4694C58.6492 42.512 58.3701 42.5733 58.0961 42.653C57.8394 42.7282 57.588 42.8202 57.3434 42.9284C57.1333 43.0187 56.9358 43.136 56.7559 43.2772C56.6042 43.3968 56.4791 43.5469 56.3888 43.7178C56.2997 43.9006 56.2557 44.102 56.2603 44.3052V48.7847C56.2539 48.9913 56.2882 49.1971 56.3612 49.3905C56.4182 49.5355 56.5134 49.6624 56.6366 49.7577C56.7665 49.8535 56.9177 49.9165 57.0772 49.9413C57.2727 49.9577 57.4692 49.9577 57.6647 49.9413C57.8847 49.9564 58.1055 49.9564 58.3256 49.9413C58.4561 49.9234 58.5757 49.8585 58.6619 49.7588C58.7481 49.6592 58.7949 49.5315 58.7937 49.3997V44.7669C58.9445 44.7002 59.1012 44.6479 59.2619 44.6109L59.8493 44.4824C60.0574 44.4457 60.2716 44.4151 60.4919 44.3906C60.6884 44.3878 60.8823 44.344 61.061 44.2621C61.1629 44.2014 61.2408 44.1074 61.2813 43.9959C61.3216 43.8618 61.3432 43.7228 61.3455 43.5828C61.3611 43.4095 61.3312 43.2351 61.2588 43.0769C61.1863 42.9186 61.0739 42.782 60.9325 42.6805Z" fill="white"/>
</svg>
