<?xml version="1.0" encoding="utf-8"?>
<!-- Generator: Adobe Illustrator 22.1.0, SVG Export Plug-In . SVG Version: 6.00 Build 0)  -->
<svg version="1.1" id="圖層_1" xmlns="http://www.w3.org/2000/svg" xmlns:xlink="http://www.w3.org/1999/xlink" x="0px" y="0px"
	 viewBox="0 0 266.7 58.7" style="enable-background:new 0 0 266.7 58.7;" xml:space="preserve">
<style type="text/css">
	.st0{fill:#FFFFFF;}
</style>
<g>
	<g>
		<path class="st0" d="M35.8,3c-2.9-1.7-6.7-0.7-8.4,2.2L15,26.8V8.3c0-3.4-2.7-6.1-6.1-6.1S2.7,4.9,2.7,8.3v41.4c0,0.1,0,0.1,0,0.2
			c0,0.1,0,0.2,0,0.3c0,0.1,0,0.2,0,0.3c0,0.1,0,0.2,0,0.2c0,0.1,0.1,0.3,0.1,0.4c0,0.1,0,0.1,0,0.2c0,0.1,0.1,0.3,0.1,0.4
			c0,0.1,0,0.1,0.1,0.2c0,0.1,0.1,0.2,0.2,0.4c0,0.1,0.1,0.1,0.1,0.2c0.1,0.1,0.1,0.2,0.2,0.3c0,0.1,0.1,0.1,0.1,0.2
			c0.1,0.1,0.1,0.2,0.2,0.3C3.9,53.4,4,53.5,4,53.5c0.1,0.1,0.1,0.2,0.2,0.2c0.1,0.1,0.1,0.1,0.2,0.2c0.1,0.1,0.1,0.1,0.2,0.2
			c0.1,0.1,0.1,0.1,0.2,0.2c0.1,0.1,0.2,0.2,0.3,0.2c0.1,0,0.1,0.1,0.2,0.1c0.1,0.1,0.2,0.2,0.4,0.2c0,0,0.1,0,0.1,0.1v0
			c0,0,0,0,0,0c0.1,0.1,0.3,0.1,0.4,0.2c0,0,0.1,0,0.1,0.1c0.1,0.1,0.3,0.1,0.4,0.2c0.1,0,0.1,0,0.2,0.1c0.1,0,0.2,0.1,0.4,0.1
			c0.1,0,0.1,0,0.2,0.1c0.1,0,0.2,0,0.3,0.1c0.1,0,0.2,0,0.3,0c0.1,0,0.2,0,0.3,0c0.1,0,0.2,0,0.3,0c0,0,0.1,0,0.1,0
			c0.1,0,0.1,0,0.2,0c0.1,0,0.2,0,0.3,0c0.1,0,0.2,0,0.3,0c0.1,0,0.2,0,0.3,0c0.1,0,0.2,0,0.4-0.1c0.1,0,0.1,0,0.2-0.1
			c0.1,0,0.2-0.1,0.4-0.1c0.1,0,0.1,0,0.2-0.1c0.1,0,0.2-0.1,0.3-0.1c0.1,0,0.1-0.1,0.2-0.1c0.1,0,0.2-0.1,0.3-0.2
			c0.1,0,0.2-0.1,0.2-0.2c0.1-0.1,0.2-0.1,0.2-0.2c0.1-0.1,0.2-0.1,0.3-0.2c0.1-0.1,0.1-0.1,0.2-0.2c0.1-0.1,0.2-0.2,0.3-0.2
			c0.1-0.1,0.1-0.1,0.2-0.2c0.1-0.1,0.2-0.2,0.2-0.2c0.1-0.1,0.1-0.1,0.2-0.2c0.1-0.1,0.1-0.2,0.2-0.2c0.1-0.1,0.1-0.2,0.2-0.3
			c0-0.1,0.1-0.1,0.1-0.2l6.6-11.5l6.6,11.5c1.7,2.9,5.4,3.9,8.4,2.2v0c2.9-1.7,3.9-5.4,2.2-8.4L29,30.9c-0.3-0.6-0.8-1.1-1.3-1.5
			l10.4-18C39.8,8.4,38.8,4.7,35.8,3z"/>
		<path class="st0" d="M122.5,43.6h-12.3V8.3c0-3.4-2.7-6.1-6.1-6.1h0c-3.4,0-6.1,2.7-6.1,6.1v41.4c0,3.4,2.7,6.1,6.1,6.1h0h18.4
			c3.4,0,6.1-2.7,6.1-6.1S125.9,43.6,122.5,43.6z"/>
		<path class="st0" d="M65.2,3.9C51.3,3.9,40.1,15.2,40.1,29s11.3,25.1,25.1,25.1S90.3,42.9,90.3,29S79,3.9,65.2,3.9z M65.2,42.2
			C57.9,42.2,52,36.3,52,29s5.9-13.2,13.2-13.2S78.4,21.7,78.4,29S72.5,42.2,65.2,42.2z"/>
		<path class="st0" d="M61.8,25.7c1,0,1.8-0.8,1.8-1.8s-0.8-1.8-1.8-1.8c-1,0-1.8,0.8-1.8,1.8S60.8,25.7,61.8,25.7z"/>
		<circle class="st0" cx="68.6" cy="23.9" r="1.8"/>
		<path class="st0" d="M72,27.7c-0.6,0-1.1,0.5-1.1,1.1c0,2-2.4,5.1-5.8,5.1c-3.3,0-5.8-3-5.8-5.1c0-0.6-0.5-1.1-1.1-1.1
			s-1.1,0.5-1.1,1.1c0,3.3,3.5,7.2,7.9,7.2c4.4,0,7.9-4,7.9-7.2C73.1,28.1,72.6,27.7,72,27.7z"/>
	</g>
	<g>
		<path class="st0" d="M151,46.6v7.2c0,0.9-0.7,1.7-1.6,1.8l0,0c-0.7,0.1-1.4,0.1-2.1,0.1c-0.7,0-1.3-0.1-1.8-0.2
			c-0.5-0.1-1-0.3-1.3-0.6c-0.3-0.3-0.6-0.6-0.8-1.1c-0.2-0.5-0.3-1.1-0.3-1.9V30.6c0-0.6,0.2-1.1,0.5-1.5c0.3-0.3,0.8-0.6,1.4-0.8
			c1-0.4,2.2-0.6,3.6-0.8c1.4-0.2,2.8-0.2,4.4-0.2c4.2,0,7.3,0.9,9.4,2.6c2.1,1.8,3.2,4.1,3.2,7.1c0,1.9-0.5,3.5-1.5,4.8
			c-1,1.3-2.1,2.4-3.4,3.1c1.1,1.5,2.2,2.9,3.2,4.2c0.5,0.7,1,1.3,1.4,1.9c0.9,1.3,0.7,3.2-0.6,4.1c0,0,0,0,0,0
			c-0.8,0.6-1.7,0.8-2.7,0.8c-0.7,0-1.2-0.1-1.7-0.2c-0.5-0.2-0.9-0.4-1.3-0.6c-0.4-0.3-0.7-0.6-1-1c-0.3-0.4-0.6-0.8-0.9-1.3
			l-3.8-6.1H151z M153.8,40.6c1.1,0,2.1-0.3,2.7-0.9c0.7-0.6,1-1.5,1-2.6c0-1.1-0.4-2-1.1-2.6c-0.7-0.6-1.9-0.9-3.5-0.9
			c-0.5,0-0.8,0-1.1,0c-0.3,0-0.6,0.1-0.9,0.1v6.8H153.8z"/>
		<path class="st0" d="M179.9,32.4c1.6,0,3.1,0.2,4.5,0.5c1.3,0.3,2.5,0.8,3.4,1.5c1,0.7,1.7,1.5,2.2,2.6c0.5,1,0.8,2.3,0.8,3.7
			v10.2c0,0.8-0.2,1.4-0.7,1.9c-0.4,0.5-1,0.9-1.6,1.3c-2,1.2-4.7,1.8-8.3,1.8c-1.6,0-3-0.2-4.3-0.5c-1.3-0.3-2.4-0.8-3.3-1.4
			c-0.9-0.6-1.6-1.4-2.1-2.3c-0.5-0.9-0.7-2-0.7-3.3c0-2.1,0.6-3.7,1.9-4.8c1.2-1.1,3.2-1.8,5.8-2.1l5.9-0.6v-0.3
			c0-0.9-0.4-1.5-1.2-1.9c-0.8-0.4-1.9-0.6-3.3-0.6c-1.1,0-2.3,0.1-3.4,0.4c-0.7,0.1-1.3,0.3-1.9,0.5c-0.8,0.3-1.7-0.1-2.1-0.8
			c0,0,0,0,0,0c-0.3-0.6-0.4-1.1-0.4-1.7c0-0.8,0.2-1.4,0.6-1.9c0.4-0.5,1-0.9,1.7-1.2c0.9-0.3,1.9-0.6,3.1-0.7
			C177.7,32.5,178.8,32.4,179.9,32.4z M180.3,50.2c0.5,0,1.1-0.1,1.7-0.2s1.1-0.2,1.4-0.4V46l-3.3,0.3c-0.8,0.1-1.5,0.2-2.1,0.5
			c-0.5,0.3-0.8,0.8-0.8,1.4c0,0.6,0.2,1.1,0.7,1.5C178.3,50.1,179.1,50.2,180.3,50.2z"/>
		<path class="st0" d="M194.6,44.1c0-2,0.3-3.7,0.9-5.2c0.6-1.5,1.4-2.7,2.5-3.6c1.1-1,2.3-1.7,3.8-2.2c1.4-0.5,3-0.7,4.6-0.7
			c0.6,0,1.2,0.1,1.8,0.2c0.6,0.1,1,0.2,1.4,0.4V27c0-0.8,0.6-1.6,1.4-1.7c0,0,0,0,0,0c0.7-0.1,1.3-0.2,2-0.2c0.7,0,1.3,0,1.8,0.1
			c0.5,0.1,1,0.3,1.3,0.5c0.4,0.3,0.6,0.6,0.8,1.1c0.2,0.5,0.3,1.1,0.3,1.8v21.5c0,1.4-0.7,2.6-2,3.4c-0.9,0.6-2,1.1-3.4,1.5
			c-1.4,0.4-3,0.7-4.8,0.7c-2,0-3.7-0.3-5.3-0.8c-1.6-0.5-2.9-1.3-3.9-2.4c-1.1-1-1.9-2.3-2.4-3.7C194.9,47.6,194.6,45.9,194.6,44.1
			z M207.5,38.5c-1.6,0-2.9,0.5-3.8,1.4c-0.9,0.9-1.3,2.4-1.3,4.3c0,1.9,0.4,3.3,1.2,4.2c0.8,1,2,1.4,3.5,1.4c0.5,0,1-0.1,1.5-0.2
			c0.4-0.2,0.8-0.4,1-0.6V39C209.1,38.6,208.3,38.5,207.5,38.5z"/>
		<path class="st0" d="M231.3,32.4c1.6,0,3.1,0.2,4.5,0.5c1.3,0.3,2.5,0.8,3.4,1.5c1,0.7,1.7,1.5,2.2,2.6c0.5,1,0.8,2.3,0.8,3.7
			v10.2c0,0.8-0.2,1.4-0.7,1.9c-0.4,0.5-1,0.9-1.6,1.3c-2,1.2-4.7,1.8-8.3,1.8c-1.6,0-3-0.2-4.3-0.5c-1.3-0.3-2.4-0.8-3.3-1.4
			c-0.9-0.6-1.6-1.4-2.1-2.3c-0.5-0.9-0.7-2-0.7-3.3c0-2.1,0.6-3.7,1.9-4.8c1.2-1.1,3.2-1.8,5.8-2.1l5.9-0.6v-0.3
			c0-0.9-0.4-1.5-1.2-1.9c-0.8-0.4-1.9-0.6-3.3-0.6c-1.1,0-2.3,0.1-3.4,0.4c-0.7,0.1-1.3,0.3-1.9,0.5c-0.8,0.3-1.7-0.1-2.1-0.8
			c0,0,0,0,0,0c-0.3-0.6-0.4-1.1-0.4-1.7c0-0.8,0.2-1.4,0.6-1.9c0.4-0.5,1-0.9,1.7-1.2c0.9-0.3,1.9-0.6,3.1-0.7
			C229.1,32.5,230.3,32.4,231.3,32.4z M231.7,50.2c0.5,0,1.1-0.1,1.7-0.2c0.6-0.1,1.1-0.2,1.4-0.4V46l-3.3,0.3
			c-0.8,0.1-1.5,0.2-2.1,0.5c-0.5,0.3-0.8,0.8-0.8,1.4c0,0.6,0.2,1.1,0.7,1.5C229.8,50.1,230.6,50.2,231.7,50.2z"/>
		<path class="st0" d="M253.7,54.1c0,0.8-0.6,1.5-1.4,1.6c0,0,0,0,0,0c-0.7,0.1-1.3,0.1-2,0.1c-0.7,0-1.3,0-1.8-0.1
			c-0.5-0.1-1-0.3-1.3-0.5c-0.4-0.3-0.6-0.6-0.8-1.1c-0.2-0.5-0.3-1.1-0.3-1.8V38.6c0-0.7,0.1-1.3,0.4-1.8c0.3-0.5,0.6-0.9,1.1-1.3
			c0.5-0.4,1.1-0.7,1.8-1.1c0.7-0.3,1.5-0.6,2.3-0.8c0.8-0.2,1.7-0.4,2.5-0.6c0.9-0.1,1.8-0.2,2.6-0.2c1.5,0,2.6,0.3,3.4,0.8
			c0.8,0.6,1.3,1.5,1.3,2.7c0,0.4-0.1,0.8-0.2,1.2c-0.1,0.3-0.4,0.6-0.7,0.8c-0.5,0.3-1.1,0.3-1.7,0.4s-1.3,0.2-1.9,0.3
			c-0.6,0.1-1.2,0.2-1.8,0.4c-0.6,0.1-1,0.3-1.4,0.5V54.1z"/>
	</g>
</g>
</svg>
