<svg width="28" height="26" viewBox="0 0 28 26" fill="none" xmlns="http://www.w3.org/2000/svg">
<g filter="url(#filter0_d)">
<path d="M14.2193 13.5986H2V20.0135C2 23.0466 4.48015 25.5337 7.50472 25.5337H20.4953C23.5198 25.5337 26 23.0466 26 20.0135V6.98649C26 4.18091 23.8828 1.84545 21.1758 1.51181H14.2193V13.5986Z" fill="#FE0000"/>
<path d="M2 6.98649V13.5986H14.2193V1.51181H6.8242C4.1172 1.84545 2 4.18091 2 6.98649ZM5.55387 7.01682C5.52363 7.18364 5.49338 7.36562 5.49338 7.56277C5.49338 7.74475 5.50851 7.92674 5.55387 8.10872L3.54253 7.56277L5.55387 7.01682ZM5.61437 8.3362C5.72023 8.685 5.91682 9.00348 6.15879 9.27645L4.14745 9.8224L5.61437 8.3362ZM5.79584 7.54761C5.79584 6.28888 6.80907 5.28797 8.04915 5.28797C9.30435 5.28797 10.3025 6.30405 10.3025 7.54761C10.3025 8.80633 9.28922 9.80724 8.04915 9.80724C6.80907 9.8224 5.79584 8.80633 5.79584 7.54761ZM5.79584 11.4754L6.34027 9.45844C6.61248 9.70108 6.91493 9.88306 7.27788 10.0044L5.79584 11.4754ZM8.04915 12.082L7.50472 10.065C7.67108 10.0954 7.85255 10.1257 8.04915 10.1257C8.23062 10.1257 8.4121 10.1105 8.59357 10.065L8.04915 12.082ZM8.83554 9.98922C9.18337 9.88306 9.50094 9.68591 9.77315 9.44327L10.3176 11.4603L8.83554 9.98922ZM9.95463 9.27645C10.1966 9.00348 10.3781 8.70017 10.4991 8.3362L11.9811 9.80724L9.95463 9.27645ZM10.5595 8.09356C10.5898 7.92674 10.62 7.74475 10.62 7.54761C10.62 7.36562 10.6049 7.18364 10.5595 7.00165L12.5709 7.54761L10.5595 8.09356ZM10.4839 6.75901C10.3781 6.41021 10.1815 6.09174 9.93951 5.81876L11.9509 5.27281L10.4839 6.75901ZM10.3176 3.63495L9.77315 5.65194C9.50094 5.4093 9.19849 5.22731 8.83554 5.10599L10.3176 3.63495ZM8.04915 3.02834L8.59357 5.04533C8.42722 5.015 8.24575 4.98467 8.04915 4.98467C7.86767 4.98467 7.6862 4.99983 7.50472 5.04533L8.04915 3.02834ZM7.26276 5.10599C6.91493 5.21215 6.59735 5.4093 6.32514 5.65194L5.79584 3.63495L7.26276 5.10599ZM6.15879 5.83392C5.91682 6.1069 5.73535 6.41021 5.61437 6.77417L4.13233 5.30314L6.15879 5.83392Z" fill="#000095"/>
<path d="M6.15881 5.83392L4.14746 5.28796L5.62951 6.759C5.73537 6.4102 5.91684 6.09173 6.15881 5.83392Z" fill="white"/>
<path d="M7.26281 5.10598L5.7959 3.61978L6.34032 5.63677C6.59741 5.40929 6.91499 5.2273 7.26281 5.10598Z" fill="white"/>
<path d="M10.3175 3.63495L8.85059 5.12115C9.19841 5.22731 9.51599 5.42446 9.7882 5.6671L10.3175 3.63495Z" fill="white"/>
<path d="M8.59348 5.04531L8.04906 3.02832L7.50464 5.04531C7.67099 5.01498 7.85246 4.98465 8.04906 4.98465C8.24566 4.98465 8.41201 4.99981 8.59348 5.04531Z" fill="white"/>
<path d="M10.6201 7.5476C10.6201 7.72958 10.6049 7.91157 10.5596 8.09355L12.5709 7.5476L10.5596 7.00165C10.5898 7.18363 10.6201 7.36562 10.6201 7.5476Z" fill="white"/>
<path d="M10.4839 6.759L11.9659 5.28796L9.95459 5.83392C10.1966 6.09173 10.378 6.4102 10.4839 6.759Z" fill="white"/>
<path d="M8.83545 9.98922L10.3024 11.4754L9.75794 9.45844C9.50086 9.70108 9.18328 9.88306 8.83545 9.98922Z" fill="white"/>
<path d="M7.51978 10.065L8.0642 12.082L8.60862 10.065C8.44227 10.0954 8.26079 10.1257 8.0642 10.1257C7.8676 10.1257 7.68613 10.0954 7.51978 10.065Z" fill="white"/>
<path d="M5.49333 7.5476C5.49333 7.36562 5.50845 7.18363 5.55382 7.00165L3.54248 7.5476L5.55382 8.09355C5.50845 7.91157 5.49333 7.74475 5.49333 7.5476Z" fill="white"/>
<path d="M9.95459 9.27646L11.9659 9.82241L10.4839 8.35138C10.378 8.68502 10.1966 9.00349 9.95459 9.27646Z" fill="white"/>
<path d="M5.61436 8.33621L4.13232 9.80725L6.14366 9.2613C5.91682 9.00349 5.73535 8.68501 5.61436 8.33621Z" fill="white"/>
<path d="M5.7959 11.4754L7.26281 9.98922C6.91499 9.88306 6.59741 9.68591 6.3252 9.44327L5.7959 11.4754Z" fill="white"/>
<path d="M8.0492 9.8224C9.3044 9.8224 10.3025 8.80632 10.3025 7.56276C10.3025 6.30404 9.28928 5.30313 8.0492 5.30313C6.79401 5.30313 5.7959 6.31921 5.7959 7.56276C5.7959 8.80632 6.80913 9.8224 8.0492 9.8224Z" fill="white"/>
</g>
<defs>
<filter id="filter0_d" x="0" y="0.51181" width="28" height="28.0219" filterUnits="userSpaceOnUse" color-interpolation-filters="sRGB">
<feFlood flood-opacity="0" result="BackgroundImageFix"/>
<feColorMatrix in="SourceAlpha" type="matrix" values="0 0 0 0 0 0 0 0 0 0 0 0 0 0 0 0 0 0 127 0"/>
<feOffset dy="1"/>
<feGaussianBlur stdDeviation="1"/>
<feColorMatrix type="matrix" values="0 0 0 0 0 0 0 0 0 0 0 0 0 0 0 0 0 0 0.2 0"/>
<feBlend mode="normal" in2="BackgroundImageFix" result="effect1_dropShadow"/>
<feBlend mode="normal" in="SourceGraphic" in2="effect1_dropShadow" result="shape"/>
</filter>
</defs>
</svg>
