<svg width="18" height="15" viewBox="0 0 18 15" fill="none" xmlns="http://www.w3.org/2000/svg">
<path d="M17.116 3.05864C16.9494 3.05864 16.7827 3.14198 16.616 3.22531L12.7827 6.22531L9.19938 0.225311L5.61605 6.30864L1.78271 3.22531C1.69938 3.14198 1.53271 3.05864 1.28271 3.05864C0.866048 3.05864 0.532715 3.39198 0.532715 3.80864V3.89198L2.36605 14.642H8.44938H15.866L17.6994 3.97531C17.7827 3.80864 17.6994 3.55864 17.616 3.39198C17.5327 3.22531 17.2827 3.05864 17.116 3.05864ZM14.7827 13.2253H9.86605H3.61605L3.36605 11.7253H15.0327L14.7827 13.2253ZM15.2827 10.3086H3.11605L2.28271 5.30864L6.03271 8.30865L9.19938 2.89198L12.4494 8.39198L16.1994 5.39198L15.2827 10.3086Z" fill="white"/>
</svg>
