<svg width="24" height="25" viewBox="0 0 24 25" fill="none" xmlns="http://www.w3.org/2000/svg">
<path d="M18.4953 0.466309H5.50473C2.48015 0.466309 0 2.94646 0 5.97104V18.9616C0 21.9862 2.48015 24.4663 5.50473 24.4663H18.4953C21.5198 24.4663 24 21.9862 24 18.9616V5.97104C24 2.94646 21.5198 0.466309 18.4953 0.466309ZM16.8469 12.2319C16.2268 12.988 14.8053 12.8368 14.2911 12.2622C13.5047 11.385 12.2495 11.506 11.7353 12.3983C11.7202 12.4587 11.7051 12.5192 11.69 12.5797C11.7807 12.5646 11.8866 12.5646 11.9773 12.5646C16.1815 11.8992 17.724 17.2225 14.3819 19.3094C14.7902 18.4928 14.4272 17.782 13.6257 17.4644C12.7183 17.1166 12.4159 15.7102 12.794 15.0448C13.3837 14.0164 12.8847 12.8671 11.8715 12.6553C11.811 12.6553 11.7505 12.6553 11.69 12.6705C11.7354 12.7612 11.7656 12.8519 11.7958 12.9427C13.7316 16.7385 9.14934 19.8538 6.12476 17.3132C7.03214 17.4493 7.59168 16.8897 7.63705 16.0277C7.69754 15.0599 8.9225 14.334 9.69376 14.5003C10.8431 14.7423 11.7958 13.9105 11.6749 12.8973C11.6597 12.8368 11.6295 12.7763 11.5992 12.731C11.5236 12.7915 11.448 12.8519 11.3724 12.9124C8.36295 15.9219 3.99244 12.5192 5.45936 8.8595C5.61059 9.76688 6.32136 10.1298 7.15312 9.90298C8.09074 9.66102 9.16446 10.6138 9.24008 11.385C9.36106 12.5495 10.4499 13.1998 11.3875 12.7763C11.4329 12.7461 11.4783 12.7007 11.5236 12.6553C11.4329 12.61 11.3573 12.5495 11.2817 12.489C7.48582 10.5533 9.37618 5.33587 13.3081 5.60809C12.4915 6.03153 12.3705 6.81792 12.8393 7.54381C13.3686 8.36045 12.794 9.67614 12.0832 9.99372C11.0095 10.4777 10.7372 11.7026 11.4329 12.4587C11.4783 12.489 11.5388 12.5344 11.5841 12.5495C11.5992 12.4587 11.6295 12.3529 11.6597 12.2622C12.3251 8.05799 17.8601 8.23947 18.8129 12.0656C18.1777 11.4304 17.3913 11.5665 16.8469 12.2319Z" fill="#EC1B2E"/>
</svg>
