<svg width="24" height="24" viewBox="0 0 24 24" fill="none" xmlns="http://www.w3.org/2000/svg">
<g clip-path="url(#clip0)">
<path d="M15.6128 5.73001C15.5296 5.73001 15.4471 5.73001 15.2806 5.73001C13.1213 5.64676 10.9621 5.64676 8.80285 5.73001C7.22485 5.56426 5.8966 6.72676 5.7301 8.30476C5.7301 8.47051 5.7301 8.63701 5.7301 8.80276V15.2805C5.56435 16.8585 6.72685 18.1868 8.30485 18.3533C8.4706 18.3533 8.6371 18.3533 8.80285 18.3533C10.9621 18.4365 13.1213 18.4365 15.2806 18.3533C17.1908 18.3533 18.2701 17.1908 18.3533 15.2805C18.4366 13.1213 18.4366 10.962 18.3533 8.80276C18.4366 7.22476 17.1908 5.81326 15.6128 5.73001ZM12.0413 16.1108C9.79885 16.0275 8.0551 14.2838 7.97185 12.0413C7.97185 9.79876 9.79885 7.97176 12.0413 7.97176C14.2838 8.05501 16.0276 9.79876 16.1108 12.0413C16.1108 14.2838 14.2838 16.1108 12.0413 16.1108ZM16.1941 8.80276C15.6128 8.80276 15.1973 8.38726 15.1973 7.80601C15.1973 7.30801 15.6128 6.80926 16.1108 6.80926H16.1941C16.6921 6.80926 17.1908 7.30726 17.1908 7.80601C17.1908 8.38726 16.7753 8.80276 16.1941 8.80276Z" fill="#E4405F"/>
<path d="M18.6022 0H5.39775C2.40825 0 0 2.40825 0 5.39775V18.6022C0 21.5917 2.40825 24 5.39775 24H18.6022C21.5917 24 24 21.5917 24 18.6022V5.39775C24 2.40825 21.5917 0 18.6022 0V0ZM19.7647 15.6127C19.6815 16.5262 19.2667 17.4397 18.768 18.1875C17.8545 19.2667 16.443 19.8487 15.0307 19.7655H8.802C7.72275 19.8487 6.5595 19.4332 5.72925 18.7687C4.65 17.8552 4.068 16.4437 4.15125 15.0315V9.21825C4.15125 8.80275 4.15125 8.388 4.2345 7.9725C4.40025 6.22875 5.646 4.8165 7.3905 4.40175L8.304 4.15275H15.7777C15.9435 4.236 16.1932 4.236 16.359 4.3185C17.8537 4.5675 19.0995 5.6475 19.515 7.059C19.5982 7.4745 19.6807 7.88925 19.764 8.30475V15.6127H19.7647Z" fill="#E4405F"/>
<path d="M12.0413 9.46722C10.6298 9.46722 9.46655 10.5465 9.46655 11.9587C9.46655 13.371 10.5458 14.5335 11.9581 14.5335C13.3696 14.5335 14.5328 13.4542 14.5328 12.042V11.9587C14.5328 10.6297 13.4536 9.46722 12.0413 9.46722Z" fill="#E4405F"/>
</g>
<defs>
<clipPath id="clip0">
<rect width="24" height="24" fill="white"/>
</clipPath>
</defs>
</svg>
