<svg width="28" height="26" viewBox="0 0 28 26" fill="none" xmlns="http://www.w3.org/2000/svg">
<g filter="url(#filter0_d)">
<path d="M26.0001 10.0195H16.7751V11.7484H26.0001V10.0195Z" fill="white"/>
<path d="M26.0001 13.4924H16.7751V15.2213H26.0001V13.4924Z" fill="white"/>
<path d="M2.43858 22.167H25.5463C25.7732 21.621 25.9244 21.0448 25.9698 20.4381H2.01514C2.06051 21.0296 2.21173 21.621 2.43858 22.167Z" fill="white"/>
<path d="M26 16.9653H2V18.6941H26V16.9653Z" fill="white"/>
<path d="M16.7751 8.29071H26.0001V6.98649C26.0001 6.85 26.0001 6.69835 25.985 6.56186H16.7751V8.29071Z" fill="white"/>
<path d="M7.50473 25.5185H20.4953C22.0076 25.5185 23.3837 24.8967 24.3819 23.8958H3.60303C4.60114 24.8967 5.97732 25.5185 7.50473 25.5185Z" fill="white"/>
<path d="M16.7751 4.81784H25.5464C25.2742 4.16573 24.8659 3.57428 24.382 3.08899H16.7751V4.81784Z" fill="white"/>
<path d="M2 6.98648V15.2667H16.775V15.2213V13.4924V11.7636V10.0347V8.2907V6.56185V4.83301V3.10416V1.46631H7.50473C4.48015 1.46631 2 3.93825 2 6.98648ZM12.2987 5.54578L12.6011 7.68409L13.7958 5.89458L13.1607 7.9419L15.0208 6.85L13.5539 8.42719L15.7013 8.26037L13.7051 9.0338L15.7013 9.80723L13.5539 9.64041L15.0208 11.2176L13.1607 10.1257L13.7958 12.173L12.6011 10.3835L12.2987 12.5067L11.9962 10.3835L10.8015 12.173L11.4367 10.1257L9.57656 11.2176L11.0435 9.64041L8.89603 9.80723L10.8923 9.0338L8.89603 8.26037L11.0435 8.42719L9.57656 6.85L11.4367 7.9419L10.8015 5.89458L11.9962 7.68409L12.2987 5.54578ZM10.8923 5.90974C10.3327 5.56094 9.68242 5.3638 8.98677 5.3638C6.9603 5.3638 5.32703 7.00165 5.32703 9.0338C5.32703 11.066 6.9603 12.7038 8.98677 12.7038C9.68242 12.7038 10.3478 12.5067 10.8923 12.1579C10.1512 12.8251 9.18337 13.2194 8.10964 13.2194C5.79584 13.2194 3.93573 11.3389 3.93573 9.0338C3.93573 6.71351 5.81096 4.84817 8.10964 4.84817C9.18337 4.84817 10.1512 5.24247 10.8923 5.90974Z" fill="#0035AD"/>
<path d="M3.93579 9.0338C3.93579 11.3541 5.81103 13.2194 8.1097 13.2194C9.18343 13.2194 10.1513 12.81 10.8923 12.1579C10.3328 12.5067 9.68248 12.7038 8.98683 12.7038C6.96037 12.7038 5.3271 11.066 5.3271 9.0338C5.3271 7.00165 6.96037 5.3638 8.98683 5.3638C9.68248 5.3638 10.3479 5.56094 10.8923 5.90975C10.1513 5.24247 9.18343 4.84818 8.1097 4.84818C5.81103 4.84818 3.93579 6.72868 3.93579 9.0338Z" fill="#FFD100"/>
<path d="M11.4215 7.9419L9.5614 6.86516L11.0434 8.42719L8.896 8.26037L10.8922 9.0338L8.896 9.80723L11.0434 9.64041L9.5614 11.2176L11.4215 10.1257L10.7864 12.1882L11.9811 10.3987L12.2986 12.5218L12.6011 10.3987L13.7958 12.1882L13.1606 10.1257L15.0208 11.2176L13.5538 9.64041L15.6862 9.80723L13.6899 9.0338L15.6862 8.26037L13.5538 8.42719L15.0208 6.86516L13.1606 7.9419L13.7958 5.89458L12.6011 7.66892L12.2986 5.54578L11.9811 7.66892L10.7864 5.89458L11.4215 7.9419Z" fill="#FFD100"/>
<path d="M3.60294 23.8958H24.3666C24.8657 23.3954 25.2589 22.8191 25.5311 22.167H2.43848C2.71069 22.8039 3.11901 23.3954 3.60294 23.8958Z" fill="#DC241F"/>
<path d="M26.0001 11.7635H16.7751V13.4924H26.0001V11.7635Z" fill="#DC241F"/>
<path d="M26.0001 8.29071H16.7751V10.0196H26.0001V8.29071Z" fill="#DC241F"/>
<path d="M16.7751 6.56185H25.9699C25.9245 5.95524 25.7733 5.36379 25.5464 4.83301H16.7751V6.56185Z" fill="#DC241F"/>
<path d="M16.775 15.2667H2V16.9653H25.9849V15.2213H16.775V15.2667Z" fill="#DC241F"/>
<path d="M24.382 3.089C23.3838 2.08809 22.0077 1.46631 20.4954 1.46631H16.7751V3.089H24.382Z" fill="#DC241F"/>
<path d="M2 19.9983C2 20.1348 2 20.2865 2.01512 20.423H25.9698C25.9849 20.2865 25.9849 20.1348 25.9849 19.9983V18.6941H2V19.9983Z" fill="#DC241F"/>
</g>
<defs>
<filter id="filter0_d" x="0" y="0.466309" width="28.0001" height="28.0522" filterUnits="userSpaceOnUse" color-interpolation-filters="sRGB">
<feFlood flood-opacity="0" result="BackgroundImageFix"/>
<feColorMatrix in="SourceAlpha" type="matrix" values="0 0 0 0 0 0 0 0 0 0 0 0 0 0 0 0 0 0 127 0"/>
<feOffset dy="1"/>
<feGaussianBlur stdDeviation="1"/>
<feColorMatrix type="matrix" values="0 0 0 0 0 0 0 0 0 0 0 0 0 0 0 0 0 0 0.2 0"/>
<feBlend mode="normal" in2="BackgroundImageFix" result="effect1_dropShadow"/>
<feBlend mode="normal" in="SourceGraphic" in2="effect1_dropShadow" result="shape"/>
</filter>
</defs>
</svg>
