<svg width="24" height="24" viewBox="0 0 24 24" fill="none" xmlns="http://www.w3.org/2000/svg">
<path d="M18.6022 0H5.39775C2.40825 0 0 2.40825 0 5.39775V18.6022C0 21.5917 2.40825 24 5.39775 24H18.6022C21.5917 24 24 21.5917 24 18.6022V5.39775C24 2.40825 21.5917 0 18.6022 0V0ZM15.363 7.7235H15.1973C14.7818 7.7235 14.367 7.7235 13.9515 7.7235C13.3702 7.7235 13.038 7.9725 12.9548 8.637C12.9548 9.135 12.9548 10.2983 12.9548 10.2983H15.2797L14.9475 12.6232H12.9548V18.5198H10.5465V12.6232H8.55375V10.2983H10.5465V10.1325C10.5465 9.6345 10.5465 9.219 10.5465 8.721C10.5465 8.38875 10.5465 8.13975 10.6298 7.8075C10.713 7.143 11.1278 6.4785 11.709 6.06375C12.207 5.7315 12.7882 5.4825 13.4528 5.4825C13.8682 5.4825 14.283 5.4825 14.6985 5.4825C14.9475 5.4825 15.114 5.56575 15.363 5.56575V7.725V7.7235Z" fill="#5477B9"/>
</svg>
