<svg width="24" height="24" viewBox="0 0 24 24" fill="none" xmlns="http://www.w3.org/2000/svg">
<g clip-path="url(#clip0)">
<path d="M10.3499 13.875L14.5499 11.7L10.3499 9.45001V13.875Z" fill="#FF0000"/>
<path d="M18.6 0H5.4C2.4 0 0 2.4 0 5.4V18.6C0 21.6 2.4 24 5.4 24H18.6C21.6 24 24 21.6 24 18.6V5.4C24 2.4 21.6 0 18.6 0V0ZM19.725 12.45C19.725 13.725 19.575 15 19.575 15C19.575 15 19.425 16.05 18.975 16.575C18.375 17.175 17.7 17.175 17.4 17.25C15.225 17.4 11.925 17.4 11.925 17.4C11.925 17.4 7.875 17.4 6.6 17.25C6.225 17.175 5.475 17.175 4.875 16.575C4.425 16.125 4.275 15 4.275 15C4.275 15 4.125 13.725 4.125 12.45V11.25C4.125 9.975 4.275 8.7 4.275 8.7C4.275 8.7 4.5 7.65 4.95 7.2C5.55 6.6 6.225 6.6 6.525 6.525C8.7 6.375 12 6.375 12 6.375C12 6.375 15.3 6.375 17.475 6.525C17.775 6.525 18.45 6.6 19.05 7.2C19.5 7.65 19.65 8.775 19.65 8.775C19.65 8.775 19.8 10.05 19.8 11.325V12.45H19.725Z" fill="#FF0000"/>
</g>
<defs>
<clipPath id="clip0">
<rect width="24" height="24" fill="white"/>
</clipPath>
</defs>
</svg>
